<svg width="251" height="35" viewBox="0 0 251 35" fill="none" xmlns="http://www.w3.org/2000/svg">
<path d="M65.76 19.22H62.28V22.62H59.7V19.22H56.24V16.78H59.7V13.38H62.28V16.78H65.76V19.22ZM77.2327 17.64C77.926 17.9867 78.4527 18.44 78.8127 19C79.186 19.56 79.3727 20.2067 79.3727 20.94C79.3727 21.8067 79.126 22.5667 78.6327 23.22C78.1393 23.86 77.446 24.36 76.5527 24.72C75.6593 25.0667 74.626 25.24 73.4527 25.24C72.2793 25.24 71.246 25.0667 70.3527 24.72C69.4727 24.36 68.786 23.86 68.2927 23.22C67.8127 22.5667 67.5727 21.8067 67.5727 20.94C67.5727 20.2067 67.7527 19.56 68.1127 19C68.486 18.44 69.0127 17.9867 69.6927 17.64C69.1727 17.32 68.7727 16.92 68.4927 16.44C68.2127 15.9467 68.0727 15.3867 68.0727 14.76C68.0727 13.9467 68.2993 13.24 68.7527 12.64C69.206 12.04 69.8393 11.58 70.6527 11.26C71.466 10.9267 72.3993 10.76 73.4527 10.76C74.5193 10.76 75.4593 10.9267 76.2727 11.26C77.0993 11.58 77.7393 12.04 78.1927 12.64C78.646 13.24 78.8727 13.9467 78.8727 14.76C78.8727 15.3867 78.7327 15.9467 78.4527 16.44C78.1727 16.92 77.766 17.32 77.2327 17.64ZM73.4527 13.14C72.7993 13.14 72.2727 13.3 71.8727 13.62C71.486 13.9267 71.2927 14.3533 71.2927 14.9C71.2927 15.4333 71.486 15.8533 71.8727 16.16C72.2593 16.4667 72.786 16.62 73.4527 16.62C74.1193 16.62 74.6527 16.4667 75.0527 16.16C75.4527 15.8533 75.6527 15.4333 75.6527 14.9C75.6527 14.3533 75.4527 13.9267 75.0527 13.62C74.6527 13.3 74.1193 13.14 73.4527 13.14ZM73.4527 22.86C74.266 22.86 74.906 22.68 75.3727 22.32C75.8527 21.9467 76.0927 21.4533 76.0927 20.84C76.0927 20.2267 75.8527 19.74 75.3727 19.38C74.906 19.02 74.266 18.84 73.4527 18.84C72.6527 18.84 72.0193 19.02 71.5527 19.38C71.086 19.74 70.8527 20.2267 70.8527 20.84C70.8527 21.4667 71.086 21.96 71.5527 22.32C72.0193 22.68 72.6527 22.86 73.4527 22.86ZM83.9358 28.88C83.1358 27.6667 82.5158 26.26 82.0758 24.66C81.6491 23.06 81.4358 21.3467 81.4358 19.52C81.4358 17.6933 81.6491 15.98 82.0758 14.38C82.5158 12.7667 83.1358 11.36 83.9358 10.16H86.9158C86.0758 11.64 85.4624 13.1467 85.0758 14.68C84.6891 16.2 84.4958 17.8133 84.4958 19.52C84.4958 21.2267 84.6891 22.8467 85.0758 24.38C85.4624 25.9 86.0758 27.4 86.9158 28.88H83.9358ZM92.7242 10.76C94.6842 10.76 96.2176 11.36 97.3242 12.56C98.4309 13.7467 98.9842 15.46 98.9842 17.7C98.9842 19.2867 98.6842 20.6467 98.0842 21.78C97.4976 22.9133 96.6642 23.7733 95.5842 24.36C94.5042 24.9467 93.2576 25.24 91.8442 25.24C91.0976 25.24 90.3842 25.16 89.7042 25C89.0242 24.8267 88.4442 24.5867 87.9642 24.28L89.1642 21.9C89.8442 22.3667 90.7176 22.6 91.7842 22.6C92.9709 22.6 93.9109 22.2533 94.6042 21.56C95.2976 20.8533 95.6709 19.84 95.7242 18.52C94.8842 19.36 93.7242 19.78 92.2442 19.78C91.3509 19.78 90.5376 19.6 89.8042 19.24C89.0709 18.88 88.4909 18.3733 88.0642 17.72C87.6376 17.0533 87.4242 16.2867 87.4242 15.42C87.4242 14.4867 87.6576 13.6667 88.1242 12.96C88.5909 12.2533 89.2242 11.7133 90.0242 11.34C90.8376 10.9533 91.7376 10.76 92.7242 10.76ZM92.9642 17.36C93.6709 17.36 94.2442 17.1667 94.6842 16.78C95.1376 16.38 95.3642 15.8733 95.3642 15.26C95.3642 14.6467 95.1442 14.1467 94.7042 13.76C94.2776 13.3733 93.6842 13.18 92.9242 13.18C92.2309 13.18 91.6642 13.3667 91.2242 13.74C90.7976 14.1133 90.5842 14.62 90.5842 15.26C90.5842 15.9 90.7976 16.4133 91.2242 16.8C91.6642 17.1733 92.2442 17.36 92.9642 17.36ZM105.239 16.26C107.212 16.26 108.665 16.6533 109.599 17.44C110.545 18.2267 111.019 19.28 111.019 20.6C111.019 21.4533 110.805 22.2333 110.379 22.94C109.952 23.6333 109.299 24.1933 108.419 24.62C107.552 25.0333 106.479 25.24 105.199 25.24C104.212 25.24 103.239 25.1133 102.279 24.86C101.332 24.5933 100.525 24.22 99.8586 23.74L101.139 21.26C101.672 21.66 102.285 21.9733 102.979 22.2C103.672 22.4133 104.385 22.52 105.119 22.52C105.932 22.52 106.572 22.36 107.039 22.04C107.505 21.72 107.739 21.2733 107.739 20.7C107.739 20.1 107.492 19.6467 106.999 19.34C106.519 19.0333 105.679 18.88 104.479 18.88H100.899L101.619 11H110.159V13.6H104.319L104.099 16.26H105.239ZM118.233 25.24C117.073 25.24 116.04 24.9533 115.133 24.38C114.226 23.8067 113.513 22.98 112.993 21.9C112.486 20.8067 112.233 19.5067 112.233 18C112.233 16.4933 112.486 15.2 112.993 14.12C113.513 13.0267 114.226 12.1933 115.133 11.62C116.04 11.0467 117.073 10.76 118.233 10.76C119.393 10.76 120.426 11.0467 121.333 11.62C122.24 12.1933 122.946 13.0267 123.453 14.12C123.973 15.2 124.233 16.4933 124.233 18C124.233 19.5067 123.973 20.8067 123.453 21.9C122.946 22.98 122.24 23.8067 121.333 24.38C120.426 24.9533 119.393 25.24 118.233 25.24ZM118.233 22.5C119.086 22.5 119.753 22.1333 120.233 21.4C120.726 20.6667 120.973 19.5333 120.973 18C120.973 16.4667 120.726 15.3333 120.233 14.6C119.753 13.8667 119.086 13.5 118.233 13.5C117.393 13.5 116.726 13.8667 116.233 14.6C115.753 15.3333 115.513 16.4667 115.513 18C115.513 19.5333 115.753 20.6667 116.233 21.4C116.726 22.1333 117.393 22.5 118.233 22.5ZM125.127 28.88C125.967 27.4 126.581 25.9 126.967 24.38C127.367 22.8467 127.567 21.2267 127.567 19.52C127.567 17.8133 127.367 16.2 126.967 14.68C126.581 13.1467 125.967 11.64 125.127 10.16H128.107C128.921 11.3467 129.541 12.7467 129.967 14.36C130.407 15.96 130.627 17.68 130.627 19.52C130.627 21.36 130.414 23.08 129.987 24.68C129.561 26.2667 128.934 27.6667 128.107 28.88H125.127ZM144.339 25.24C143.179 25.24 142.146 24.9533 141.239 24.38C140.333 23.8067 139.619 22.98 139.099 21.9C138.593 20.8067 138.339 19.5067 138.339 18C138.339 16.4933 138.593 15.2 139.099 14.12C139.619 13.0267 140.333 12.1933 141.239 11.62C142.146 11.0467 143.179 10.76 144.339 10.76C145.499 10.76 146.533 11.0467 147.439 11.62C148.346 12.1933 149.053 13.0267 149.559 14.12C150.079 15.2 150.339 16.4933 150.339 18C150.339 19.5067 150.079 20.8067 149.559 21.9C149.053 22.98 148.346 23.8067 147.439 24.38C146.533 24.9533 145.499 25.24 144.339 25.24ZM144.339 22.5C145.193 22.5 145.859 22.1333 146.339 21.4C146.833 20.6667 147.079 19.5333 147.079 18C147.079 16.4667 146.833 15.3333 146.339 14.6C145.859 13.8667 145.193 13.5 144.339 13.5C143.499 13.5 142.833 13.8667 142.339 14.6C141.859 15.3333 141.619 16.4667 141.619 18C141.619 19.5333 141.859 20.6667 142.339 21.4C142.833 22.1333 143.499 22.5 144.339 22.5ZM157.096 11V25H153.856V13.6H151.056V11H157.096ZM164.348 10.76C166.308 10.76 167.842 11.36 168.948 12.56C170.055 13.7467 170.608 15.46 170.608 17.7C170.608 19.2867 170.308 20.6467 169.708 21.78C169.122 22.9133 168.288 23.7733 167.208 24.36C166.128 24.9467 164.882 25.24 163.468 25.24C162.722 25.24 162.008 25.16 161.328 25C160.648 24.8267 160.068 24.5867 159.588 24.28L160.788 21.9C161.468 22.3667 162.342 22.6 163.408 22.6C164.595 22.6 165.535 22.2533 166.228 21.56C166.922 20.8533 167.295 19.84 167.348 18.52C166.508 19.36 165.348 19.78 163.868 19.78C162.975 19.78 162.162 19.6 161.428 19.24C160.695 18.88 160.115 18.3733 159.688 17.72C159.262 17.0533 159.048 16.2867 159.048 15.42C159.048 14.4867 159.282 13.6667 159.748 12.96C160.215 12.2533 160.848 11.7133 161.648 11.34C162.462 10.9533 163.362 10.76 164.348 10.76ZM164.588 17.36C165.295 17.36 165.868 17.1667 166.308 16.78C166.762 16.38 166.988 15.8733 166.988 15.26C166.988 14.6467 166.768 14.1467 166.328 13.76C165.902 13.3733 165.308 13.18 164.548 13.18C163.855 13.18 163.288 13.3667 162.848 13.74C162.422 14.1133 162.208 14.62 162.208 15.26C162.208 15.9 162.422 16.4133 162.848 16.8C163.288 17.1733 163.868 17.36 164.588 17.36ZM177.887 18.12H183.547V20.62H177.887V18.12ZM196.206 11V25H192.966V13.6H190.166V11H196.206ZM203.458 10.76C205.418 10.76 206.951 11.36 208.058 12.56C209.164 13.7467 209.718 15.46 209.718 17.7C209.718 19.2867 209.418 20.6467 208.818 21.78C208.231 22.9133 207.398 23.7733 206.318 24.36C205.238 24.9467 203.991 25.24 202.578 25.24C201.831 25.24 201.118 25.16 200.438 25C199.758 24.8267 199.178 24.5867 198.698 24.28L199.898 21.9C200.578 22.3667 201.451 22.6 202.518 22.6C203.704 22.6 204.644 22.2533 205.338 21.56C206.031 20.8533 206.404 19.84 206.458 18.52C205.618 19.36 204.458 19.78 202.978 19.78C202.084 19.78 201.271 19.6 200.538 19.24C199.804 18.88 199.224 18.3733 198.798 17.72C198.371 17.0533 198.158 16.2867 198.158 15.42C198.158 14.4867 198.391 13.6667 198.858 12.96C199.324 12.2533 199.958 11.7133 200.758 11.34C201.571 10.9533 202.471 10.76 203.458 10.76ZM203.698 17.36C204.404 17.36 204.978 17.1667 205.418 16.78C205.871 16.38 206.098 15.8733 206.098 15.26C206.098 14.6467 205.878 14.1467 205.438 13.76C205.011 13.3733 204.418 13.18 203.658 13.18C202.964 13.18 202.398 13.3667 201.958 13.74C201.531 14.1133 201.318 14.62 201.318 15.26C201.318 15.9 201.531 16.4133 201.958 16.8C202.398 17.1733 202.978 17.36 203.698 17.36ZM216.996 18.12H222.656V20.62H216.996V18.12ZM235.315 11V25H232.075V13.6H229.275V11H235.315ZM242.567 10.76C244.527 10.76 246.061 11.36 247.167 12.56C248.274 13.7467 248.827 15.46 248.827 17.7C248.827 19.2867 248.527 20.6467 247.927 21.78C247.341 22.9133 246.507 23.7733 245.427 24.36C244.347 24.9467 243.101 25.24 241.687 25.24C240.941 25.24 240.227 25.16 239.547 25C238.867 24.8267 238.287 24.5867 237.807 24.28L239.007 21.9C239.687 22.3667 240.561 22.6 241.627 22.6C242.814 22.6 243.754 22.2533 244.447 21.56C245.141 20.8533 245.514 19.84 245.567 18.52C244.727 19.36 243.567 19.78 242.087 19.78C241.194 19.78 240.381 19.6 239.647 19.24C238.914 18.88 238.334 18.3733 237.907 17.72C237.481 17.0533 237.267 16.2867 237.267 15.42C237.267 14.4867 237.501 13.6667 237.967 12.96C238.434 12.2533 239.067 11.7133 239.867 11.34C240.681 10.9533 241.581 10.76 242.567 10.76ZM242.807 17.36C243.514 17.36 244.087 17.1667 244.527 16.78C244.981 16.38 245.207 15.8733 245.207 15.26C245.207 14.6467 244.987 14.1467 244.547 13.76C244.121 13.3733 243.527 13.18 242.767 13.18C242.074 13.18 241.507 13.3667 241.067 13.74C240.641 14.1133 240.427 14.62 240.427 15.26C240.427 15.9 240.641 16.4133 241.067 16.8C241.507 17.1733 242.087 17.36 242.807 17.36Z" fill="#693030"/>
<path d="M14.5102 20.4923C11.166 17.1482 10.4109 13.804 10.2406 12.4642C10.193 12.0937 10.3205 11.7222 10.5855 11.459L13.2918 8.75399C13.6899 8.35614 13.7605 7.73611 13.4621 7.25891L9.15325 0.56819C8.82313 0.039776 8.1453 -0.150934 7.58808 0.12782L0.670767 3.38559C0.220159 3.60747 -0.0448821 4.08622 0.0062794 4.58588C0.368727 8.0291 1.86986 16.4934 10.188 24.8121C18.5062 33.1308 26.9694 34.6313 30.4144 34.9937C30.9141 35.0449 31.3928 34.7798 31.6147 34.3292L34.8725 27.412C35.1502 26.856 34.9608 26.18 34.4346 25.8493L27.7438 21.5416C27.2668 21.2429 26.6468 21.3131 26.2487 21.7108L23.5436 24.417C23.2804 24.682 22.9089 24.8095 22.5384 24.7619C21.1986 24.5916 17.8544 23.8365 14.5102 20.4923Z" fill="#693030"/>
<path d="M24.7697 13.8576V16.2395C24.7697 16.4707 24.6376 16.6817 24.4296 16.7827C24.2216 16.8838 23.9741 16.8572 23.7923 16.7143L16.9167 11.3121C16.771 11.1975 16.686 11.0225 16.686 10.8373C16.686 10.652 16.771 10.477 16.9167 10.3625L23.7923 4.96022C23.9741 4.81731 24.2216 4.79073 24.4296 4.89178C24.6376 4.99283 24.7697 5.20377 24.7697 5.43503V7.82293C24.7697 8.1535 25.0354 8.4227 25.3659 8.427C27.9761 8.46022 33.7161 8.88489 34.8445 14.2756C34.8918 14.5243 34.779 14.776 34.562 14.9063C34.345 15.0366 34.0698 15.0178 33.8726 14.8592C32.9079 14.0715 31.2237 13.2535 28.3942 13.2535H25.3738C25.0401 13.2535 24.7697 13.524 24.7697 13.8576Z" fill="#693030"/>
</svg>
