<svg width="22" height="22" viewBox="0 0 22 22" fill="none" xmlns="http://www.w3.org/2000/svg">
<path d="M11.0027 0H10.9973C4.93213 0 0 4.9335 0 11C0 13.4062 0.7755 15.6365 2.09413 17.4474L0.72325 21.5339L4.95138 20.1823C6.69075 21.3345 8.76562 22 11.0027 22C17.0679 22 22 17.0651 22 11C22 4.93488 17.0679 0 11.0027 0Z" fill="#959595"/>
<path d="M16.7676 15.3915C16.5028 16.133 15.4518 16.7479 14.6134 16.9275C14.0398 17.0486 13.2907 17.1452 10.7687 16.1085C7.54283 14.7833 5.46543 11.5331 5.30352 11.3222C5.14847 11.1114 4 9.6012 4 8.03935C4 6.4775 4.79995 5.71698 5.1224 5.39046C5.38722 5.12245 5.82493 5 6.2448 5C6.38064 5 6.50276 5.0068 6.61253 5.01224C6.93498 5.02585 7.09689 5.0449 7.30957 5.54964C7.57439 6.18227 8.21929 7.74412 8.29613 7.90466C8.37434 8.0652 8.45255 8.28288 8.34278 8.49376C8.23987 8.71144 8.14931 8.80803 7.9874 8.99306C7.82549 9.17809 7.67181 9.31958 7.5099 9.51821C7.36171 9.691 7.19431 9.87602 7.38092 10.1957C7.56753 10.5087 8.21243 11.5522 9.16194 12.3902C10.3872 13.4718 11.3807 13.8174 11.736 13.9643C12.0009 14.0732 12.3165 14.0473 12.5099 13.8432C12.7555 13.5807 13.0588 13.1453 13.3675 12.7167C13.587 12.4093 13.8642 12.3712 14.1551 12.48C14.4515 12.5821 16.0198 13.3507 16.3423 13.5099C16.6647 13.6705 16.8774 13.7466 16.9556 13.8813C17.0325 14.016 17.0325 14.6487 16.7676 15.3915Z" fill="#FAFAFA"/>
</svg>
