<svg width="984" height="76" viewBox="0 0 984 76" fill="none" xmlns="http://www.w3.org/2000/svg">
<rect width="982" height="1" transform="matrix(1 0 0 -1 0 76)" fill="#693030"/>
<path d="M37.015 55.285C37.015 51.545 36.3917 48.8867 35.145 47.31C33.935 45.77 31.8817 45 28.985 45H1.925C1.85167 45 1.815 44.89 1.815 44.67C1.815 44.45 1.85167 44.34 1.925 44.34C3.31833 44.34 4.345 44.2483 5.005 44.065C5.70167 43.8817 6.16 43.5333 6.38 43.02C6.63667 42.47 6.765 41.645 6.765 40.545V15.08C6.765 13.98 6.63667 13.1733 6.38 12.66C6.16 12.1467 5.70167 11.7983 5.005 11.615C4.345 11.395 3.31833 11.285 1.925 11.285C1.85167 11.285 1.815 11.175 1.815 10.955C1.815 10.735 1.85167 10.625 1.925 10.625L4.675 10.68C6.215 10.7533 7.46167 10.79 8.415 10.79C9.44167 10.79 10.7617 10.7533 12.375 10.68L15.125 10.625C15.1983 10.625 15.235 10.735 15.235 10.955C15.235 11.175 15.1983 11.285 15.125 11.285C13.695 11.285 12.65 11.395 11.99 11.615C11.33 11.7983 10.8717 12.1467 10.615 12.66C10.395 13.1733 10.285 13.98 10.285 15.08V40.435C10.285 41.6817 10.34 42.5067 10.45 42.91C10.5967 43.3133 10.9267 43.57 11.44 43.68C11.9533 43.79 12.9983 43.845 14.575 43.845H24.86C26.51 43.845 27.61 43.79 28.16 43.68C28.7467 43.57 29.1133 43.3133 29.26 42.91C29.4067 42.47 29.48 41.645 29.48 40.435V15.08C29.48 13.98 29.3517 13.1733 29.095 12.66C28.875 12.1467 28.435 11.7983 27.775 11.615C27.115 11.395 26.07 11.285 24.64 11.285C24.53 11.285 24.475 11.175 24.475 10.955C24.475 10.735 24.53 10.625 24.64 10.625L27.39 10.68C29.0033 10.7533 30.305 10.79 31.295 10.79C32.285 10.79 33.55 10.7533 35.09 10.68L37.84 10.625C37.9133 10.625 37.95 10.735 37.95 10.955C37.95 11.175 37.9133 11.285 37.84 11.285C36.4467 11.285 35.4017 11.395 34.705 11.615C34.045 11.7983 33.5867 12.1467 33.33 12.66C33.11 13.1733 33 13.98 33 15.08V40.545C33 41.9383 33.055 42.855 33.165 43.295C33.3117 43.735 33.6417 44.0283 34.155 44.175C34.6683 44.285 35.6767 44.34 37.18 44.34C37.4733 44.34 37.6383 44.3767 37.675 44.45C37.7483 44.5233 37.785 44.7067 37.785 45C37.785 45.6233 37.7667 46.155 37.73 46.595C37.6567 48.4283 37.62 51.325 37.62 55.285C37.62 55.4683 37.51 55.56 37.29 55.56C37.1067 55.56 37.015 55.4683 37.015 55.285ZM59.7596 41.92C59.8696 41.92 59.9613 41.9933 60.0346 42.14C60.1446 42.25 60.163 42.36 60.0896 42.47C57.6696 44.5967 54.993 45.66 52.0596 45.66C49.933 45.66 48.118 45.165 46.6146 44.175C45.1113 43.185 43.9563 41.8833 43.1496 40.27C42.3796 38.6567 41.9946 36.9333 41.9946 35.1C41.9946 32.9367 42.508 30.9567 43.5346 29.16C44.5613 27.3267 45.9546 25.8967 47.7146 24.87C49.5113 23.8067 51.473 23.275 53.5996 23.275C55.653 23.275 57.2296 23.825 58.3296 24.925C59.4296 26.025 59.9796 27.565 59.9796 29.545C59.9796 30.0583 59.9246 30.425 59.8146 30.645C59.7413 30.865 59.5946 30.975 59.3746 30.975L45.7346 31.03C45.6613 31.8367 45.6246 32.4967 45.6246 33.01C45.6246 36.2 46.3763 38.785 47.8796 40.765C49.383 42.745 51.4913 43.735 54.2046 43.735C55.3046 43.735 56.2396 43.5883 57.0096 43.295C57.8163 43.0017 58.7146 42.5433 59.7046 41.92H59.7596ZM51.7846 24.375C50.208 24.375 48.9063 24.9067 47.8796 25.97C46.853 26.9967 46.1746 28.445 45.8446 30.315L56.2946 30.095C56.2946 28.225 55.8913 26.8133 55.0846 25.86C54.278 24.87 53.178 24.375 51.7846 24.375ZM89.1408 44.34C89.2142 44.34 89.2508 44.45 89.2508 44.67C89.2508 44.89 89.2142 45 89.1408 45C88.1875 45 87.4358 44.9817 86.8858 44.945L84.1358 44.89L81.1658 44.945C80.6525 44.9817 79.9375 45 79.0208 45C78.9108 45 78.8558 44.89 78.8558 44.67C78.8558 44.45 78.9108 44.34 79.0208 44.34C80.0475 44.34 80.7992 44.2483 81.2758 44.065C81.7525 43.8817 82.0825 43.5333 82.2658 43.02C82.4492 42.47 82.5408 41.645 82.5408 40.545V34.935H70.8258V40.545C70.8258 41.645 70.8992 42.47 71.0458 43.02C71.2292 43.5333 71.5592 43.8817 72.0358 44.065C72.5492 44.2483 73.3192 44.34 74.3458 44.34C74.4192 44.34 74.4558 44.45 74.4558 44.67C74.4558 44.89 74.4192 45 74.3458 45C73.3925 45 72.6408 44.9817 72.0908 44.945L69.3408 44.89L66.4258 44.945C65.9125 44.9817 65.1792 45 64.2258 45C64.1158 45 64.0608 44.89 64.0608 44.67C64.0608 44.45 64.1158 44.34 64.2258 44.34C65.2525 44.34 66.0042 44.2483 66.4808 44.065C66.9942 43.8817 67.3242 43.5333 67.4708 43.02C67.6542 42.47 67.7458 41.645 67.7458 40.545V28.225C67.7458 27.125 67.6542 26.3183 67.4708 25.805C67.3242 25.255 67.0125 24.8883 66.5358 24.705C66.0592 24.5217 65.3075 24.43 64.2808 24.43C64.1708 24.43 64.1158 24.32 64.1158 24.1C64.1158 23.88 64.1708 23.77 64.2808 23.77C65.1975 23.77 65.9125 23.7883 66.4258 23.825L69.3408 23.88L72.1458 23.825C72.6958 23.7883 73.4292 23.77 74.3458 23.77C74.4192 23.77 74.4558 23.88 74.4558 24.1C74.4558 24.32 74.4192 24.43 74.3458 24.43C73.3192 24.43 72.5492 24.54 72.0358 24.76C71.5592 24.98 71.2292 25.365 71.0458 25.915C70.8992 26.4283 70.8258 27.235 70.8258 28.335V33.835H82.5408V28.225C82.5408 27.125 82.4492 26.3183 82.2658 25.805C82.1192 25.255 81.8075 24.8883 81.3308 24.705C80.8542 24.5217 80.1025 24.43 79.0758 24.43C78.9658 24.43 78.9108 24.32 78.9108 24.1C78.9108 23.88 78.9658 23.77 79.0758 23.77C79.9925 23.77 80.7075 23.7883 81.2208 23.825L84.1358 23.88L86.9408 23.825C87.4908 23.7883 88.2242 23.77 89.1408 23.77C89.2142 23.77 89.2508 23.88 89.2508 24.1C89.2508 24.32 89.2142 24.43 89.1408 24.43C88.1142 24.43 87.3442 24.54 86.8308 24.76C86.3542 24.98 86.0242 25.365 85.8408 25.915C85.6942 26.4283 85.6208 27.235 85.6208 28.335V40.545C85.6208 41.645 85.6942 42.47 85.8408 43.02C86.0242 43.5333 86.3542 43.8817 86.8308 44.065C87.3442 44.2483 88.1142 44.34 89.1408 44.34ZM104.85 32.515C109.69 32.515 112.11 34.4217 112.11 38.235C112.11 40.2517 111.395 41.9017 109.965 43.185C108.535 44.4683 106.739 45.11 104.575 45.11C104.025 45.11 102.98 45.0733 101.44 45C99.6802 44.9267 98.4335 44.89 97.7002 44.89L94.7852 44.945C94.2719 44.9817 93.5385 45 92.5852 45C92.4752 45 92.4202 44.89 92.4202 44.67C92.4202 44.45 92.4752 44.34 92.5852 44.34C93.6119 44.34 94.3635 44.2483 94.8402 44.065C95.3535 43.8817 95.6835 43.5333 95.8302 43.02C96.0135 42.47 96.1052 41.645 96.1052 40.545V28.225C96.1052 27.125 96.0135 26.3183 95.8302 25.805C95.6835 25.255 95.3719 24.8883 94.8952 24.705C94.4185 24.5217 93.6669 24.43 92.6402 24.43C92.5302 24.43 92.4752 24.32 92.4752 24.1C92.4752 23.88 92.5302 23.77 92.6402 23.77C93.5569 23.77 94.2719 23.7883 94.7852 23.825L97.7002 23.88L100.89 23.825C101.477 23.7883 102.284 23.77 103.31 23.77C103.42 23.77 103.475 23.88 103.475 24.1C103.475 24.32 103.42 24.43 103.31 24.43C102.1 24.43 101.202 24.54 100.615 24.76C100.065 24.98 99.6802 25.365 99.4602 25.915C99.2769 26.4283 99.1852 27.235 99.1852 28.335V33.34C100.799 32.79 102.687 32.515 104.85 32.515ZM123.99 44.34C124.064 44.34 124.1 44.45 124.1 44.67C124.1 44.89 124.064 45 123.99 45C123.074 45 122.34 44.9817 121.79 44.945L119.04 44.89L116.07 44.945C115.557 44.9817 114.842 45 113.925 45C113.815 45 113.76 44.89 113.76 44.67C113.76 44.45 113.815 44.34 113.925 44.34C114.952 44.34 115.704 44.2483 116.18 44.065C116.657 43.8817 116.969 43.5333 117.115 43.02C117.299 42.47 117.39 41.645 117.39 40.545V28.225C117.39 27.125 117.299 26.3183 117.115 25.805C116.969 25.255 116.657 24.8883 116.18 24.705C115.704 24.5217 114.97 24.43 113.98 24.43C113.87 24.43 113.815 24.32 113.815 24.1C113.815 23.88 113.87 23.77 113.98 23.77C114.86 23.77 115.557 23.7883 116.07 23.825L119.04 23.88L121.845 23.825C122.395 23.7883 123.11 23.77 123.99 23.77C124.064 23.77 124.1 23.88 124.1 24.1C124.1 24.32 124.064 24.43 123.99 24.43C122.964 24.43 122.212 24.54 121.735 24.76C121.259 24.98 120.929 25.365 120.745 25.915C120.599 26.4283 120.525 27.235 120.525 28.335V40.545C120.525 41.645 120.599 42.47 120.745 43.02C120.929 43.5333 121.259 43.8817 121.735 44.065C122.212 44.2483 122.964 44.34 123.99 44.34ZM103.53 44.285C106.94 44.285 108.645 42.69 108.645 39.5C108.645 37.63 108.169 36.1633 107.215 35.1C106.299 34.0367 104.869 33.505 102.925 33.505C101.605 33.505 100.359 33.7067 99.1852 34.11V40.545C99.1852 41.9383 99.4785 42.91 100.065 43.46C100.652 44.01 101.807 44.285 103.53 44.285ZM165.303 44.34C165.376 44.34 165.413 44.45 165.413 44.67C165.413 44.89 165.376 45 165.303 45C164.35 45 163.598 44.9817 163.048 44.945L160.298 44.89L157.328 44.945C156.815 44.9817 156.1 45 155.183 45C155.073 45 155.018 44.89 155.018 44.67C155.018 44.45 155.073 44.34 155.183 44.34C156.21 44.34 156.961 44.2483 157.438 44.065C157.915 43.8817 158.245 43.5333 158.428 43.02C158.611 42.47 158.703 41.645 158.703 40.545V34.935H146.988V40.545C146.988 41.645 147.061 42.47 147.208 43.02C147.391 43.5333 147.721 43.8817 148.198 44.065C148.711 44.2483 149.481 44.34 150.508 44.34C150.581 44.34 150.618 44.45 150.618 44.67C150.618 44.89 150.581 45 150.508 45C149.555 45 148.803 44.9817 148.253 44.945L145.503 44.89L142.588 44.945C142.075 44.9817 141.341 45 140.388 45C140.278 45 140.223 44.89 140.223 44.67C140.223 44.45 140.278 44.34 140.388 44.34C141.415 44.34 142.166 44.2483 142.643 44.065C143.156 43.8817 143.486 43.5333 143.633 43.02C143.816 42.47 143.908 41.645 143.908 40.545V28.225C143.908 27.125 143.816 26.3183 143.633 25.805C143.486 25.255 143.175 24.8883 142.698 24.705C142.221 24.5217 141.47 24.43 140.443 24.43C140.333 24.43 140.278 24.32 140.278 24.1C140.278 23.88 140.333 23.77 140.443 23.77C141.36 23.77 142.075 23.7883 142.588 23.825L145.503 23.88L148.308 23.825C148.858 23.7883 149.591 23.77 150.508 23.77C150.581 23.77 150.618 23.88 150.618 24.1C150.618 24.32 150.581 24.43 150.508 24.43C149.481 24.43 148.711 24.54 148.198 24.76C147.721 24.98 147.391 25.365 147.208 25.915C147.061 26.4283 146.988 27.235 146.988 28.335V33.835H158.703V28.225C158.703 27.125 158.611 26.3183 158.428 25.805C158.281 25.255 157.97 24.8883 157.493 24.705C157.016 24.5217 156.265 24.43 155.238 24.43C155.128 24.43 155.073 24.32 155.073 24.1C155.073 23.88 155.128 23.77 155.238 23.77C156.155 23.77 156.87 23.7883 157.383 23.825L160.298 23.88L163.103 23.825C163.653 23.7883 164.386 23.77 165.303 23.77C165.376 23.77 165.413 23.88 165.413 24.1C165.413 24.32 165.376 24.43 165.303 24.43C164.276 24.43 163.506 24.54 162.993 24.76C162.516 24.98 162.186 25.365 162.003 25.915C161.856 26.4283 161.783 27.235 161.783 28.335V40.545C161.783 41.645 161.856 42.47 162.003 43.02C162.186 43.5333 162.516 43.8817 162.993 44.065C163.506 44.2483 164.276 44.34 165.303 44.34ZM189.812 42.03C189.959 42.03 190.051 42.1217 190.087 42.305C190.124 42.4517 190.069 42.5617 189.922 42.635L184.257 45.33C184.111 45.4033 183.964 45.44 183.817 45.44C183.341 45.44 182.919 45.1283 182.552 44.505C182.186 43.845 181.947 42.965 181.837 41.865L178.977 43.735C178.061 44.3217 177.254 44.7433 176.557 45C175.861 45.2567 175.127 45.385 174.357 45.385C173.001 45.385 171.937 45.0367 171.167 44.34C170.434 43.6067 170.067 42.69 170.067 41.59C170.067 40.49 170.507 39.5367 171.387 38.73C172.267 37.9233 173.716 37.1533 175.732 36.42L181.782 34.165V30.425C181.782 26.3183 180.627 24.265 178.317 24.265C177.071 24.265 176.117 24.6867 175.457 25.53C174.834 26.3367 174.412 27.2717 174.192 28.335C174.082 28.995 173.881 29.545 173.587 29.985C173.294 30.3883 172.799 30.59 172.102 30.59C171.516 30.59 171.057 30.425 170.727 30.095C170.434 29.765 170.287 29.38 170.287 28.94C170.287 28.06 170.856 27.18 171.992 26.3C173.129 25.42 174.486 24.6867 176.062 24.1C177.639 23.5133 179.051 23.22 180.297 23.22C181.801 23.22 182.937 23.6967 183.707 24.65C184.477 25.6033 184.862 26.9783 184.862 28.775V39.06C184.862 40.3433 185.027 41.2783 185.357 41.865C185.687 42.4517 186.237 42.745 187.007 42.745C187.704 42.745 188.602 42.5067 189.702 42.03H189.812ZM181.782 41.095V40.82V34.935L176.667 36.915C175.641 37.3183 174.889 37.795 174.412 38.345C173.972 38.8583 173.752 39.4817 173.752 40.215C173.752 41.095 174.027 41.8467 174.577 42.47C175.164 43.0567 175.916 43.35 176.832 43.35C177.566 43.35 178.446 43.0567 179.472 42.47L181.782 41.095ZM226.625 23.77C226.735 23.77 226.79 23.88 226.79 24.1C226.79 24.32 226.735 24.43 226.625 24.43C225.708 24.43 224.92 24.76 224.26 25.42C223.6 26.0433 222.977 27.125 222.39 28.665L213.48 51.6C212.527 54.02 211.812 56.2933 211.335 58.42C211.152 59.19 211.005 59.6667 210.895 59.85C210.785 60.0333 210.51 60.125 210.07 60.125H202.92C202.847 60.125 202.81 60.015 202.81 59.795C202.81 59.575 202.847 59.465 202.92 59.465C205.047 59.3917 206.862 58.7867 208.365 57.65C209.905 56.5133 211.317 54.3867 212.6 51.27L215.075 45.33L206.715 28.335C205.872 26.7217 205.23 25.6767 204.79 25.2C204.35 24.6867 203.782 24.43 203.085 24.43C203.012 24.43 202.975 24.32 202.975 24.1C202.975 23.88 203.012 23.77 203.085 23.77L204.955 23.825C205.395 23.8617 206 23.88 206.77 23.88L210.29 23.825C210.803 23.7883 211.518 23.77 212.435 23.77C212.508 23.77 212.545 23.88 212.545 24.1C212.545 24.32 212.508 24.43 212.435 24.43C210.308 24.43 209.245 24.8517 209.245 25.695C209.245 25.915 209.337 26.2083 209.52 26.575L216.725 41.315L221.18 28.83C221.473 27.95 221.62 27.2533 221.62 26.74C221.62 25.8967 221.29 25.31 220.63 24.98C219.97 24.6133 218.888 24.43 217.385 24.43C217.312 24.43 217.275 24.32 217.275 24.1C217.275 23.88 217.312 23.77 217.385 23.77C218.375 23.77 219.127 23.7883 219.64 23.825L222.94 23.88L224.92 23.825C225.287 23.7883 225.855 23.77 226.625 23.77ZM239.526 45.66C237.143 45.66 235.145 45.1467 233.531 44.12C231.918 43.0567 230.726 41.7 229.956 40.05C229.186 38.4 228.801 36.6583 228.801 34.825C228.801 32.4783 229.388 30.4433 230.561 28.72C231.735 26.96 233.238 25.6217 235.071 24.705C236.941 23.7517 238.848 23.275 240.791 23.275C242.405 23.275 243.871 23.605 245.191 24.265C246.548 24.8883 247.226 25.6767 247.226 26.63C247.226 27.1067 247.043 27.5283 246.676 27.895C246.346 28.225 245.888 28.39 245.301 28.39C244.311 28.39 243.505 27.785 242.881 26.575C242.405 25.8417 241.891 25.2917 241.341 24.925C240.791 24.5583 240.003 24.375 238.976 24.375C236.923 24.375 235.31 25.1817 234.136 26.795C233 28.3717 232.431 30.4983 232.431 33.175C232.431 36.255 233.201 38.785 234.741 40.765C236.281 42.745 238.591 43.735 241.671 43.735C243.908 43.735 245.778 43.13 247.281 41.92H247.336C247.446 41.92 247.538 41.975 247.611 42.085C247.721 42.195 247.74 42.2867 247.666 42.36C246.383 43.4967 245.081 44.34 243.761 44.89C242.478 45.4033 241.066 45.66 239.526 45.66ZM274.074 44.34C274.257 44.34 274.349 44.45 274.349 44.67C274.349 44.89 274.257 45 274.074 45C273.524 45 272.662 44.9633 271.489 44.89C270.315 44.8167 269.435 44.78 268.849 44.78C268.335 44.78 267.565 44.8167 266.539 44.89C265.512 44.9633 264.779 45 264.339 45C264.192 45 264.119 44.89 264.119 44.67C264.119 44.45 264.192 44.34 264.339 44.34C265.035 44.34 265.567 44.1933 265.934 43.9C266.337 43.6067 266.539 43.1667 266.539 42.58C266.539 41.92 266.337 41.1867 265.934 40.38L260.104 27.95L255.759 38.235C255.099 39.775 254.769 41.0217 254.769 41.975C254.769 43.5517 255.63 44.34 257.354 44.34C257.537 44.34 257.629 44.45 257.629 44.67C257.629 44.89 257.537 45 257.354 45C256.95 45 256.419 44.9633 255.759 44.89C254.952 44.8167 254.219 44.78 253.559 44.78C252.825 44.78 252.092 44.8167 251.359 44.89C250.699 44.9633 250.112 45 249.599 45C249.415 45 249.324 44.89 249.324 44.67C249.324 44.45 249.415 44.34 249.599 44.34C250.259 44.34 250.955 43.8817 251.689 42.965C252.422 42.0483 253.357 40.3067 254.494 37.74L260.819 22.945C260.892 22.7983 261.002 22.725 261.149 22.725C261.332 22.725 261.442 22.7983 261.479 22.945L268.299 37.465C269.289 39.5917 270.04 41.095 270.554 41.975C271.067 42.855 271.58 43.4783 272.094 43.845C272.607 44.175 273.267 44.34 274.074 44.34ZM295.643 23.77C295.753 23.77 295.808 23.88 295.808 24.1C295.808 24.32 295.753 24.43 295.643 24.43C294.727 24.43 293.938 24.76 293.278 25.42C292.618 26.0433 291.995 27.125 291.408 28.665L282.498 51.6C281.545 54.02 280.83 56.2933 280.353 58.42C280.17 59.19 280.023 59.6667 279.913 59.85C279.803 60.0333 279.528 60.125 279.088 60.125H271.938C271.865 60.125 271.828 60.015 271.828 59.795C271.828 59.575 271.865 59.465 271.938 59.465C274.065 59.3917 275.88 58.7867 277.383 57.65C278.923 56.5133 280.335 54.3867 281.618 51.27L284.093 45.33L275.733 28.335C274.89 26.7217 274.248 25.6767 273.808 25.2C273.368 24.6867 272.8 24.43 272.103 24.43C272.03 24.43 271.993 24.32 271.993 24.1C271.993 23.88 272.03 23.77 272.103 23.77L273.973 23.825C274.413 23.8617 275.018 23.88 275.788 23.88L279.308 23.825C279.822 23.7883 280.537 23.77 281.453 23.77C281.527 23.77 281.563 23.88 281.563 24.1C281.563 24.32 281.527 24.43 281.453 24.43C279.327 24.43 278.263 24.8517 278.263 25.695C278.263 25.915 278.355 26.2083 278.538 26.575L285.743 41.315L290.198 28.83C290.492 27.95 290.638 27.2533 290.638 26.74C290.638 25.8967 290.308 25.31 289.648 24.98C288.988 24.6133 287.907 24.43 286.403 24.43C286.33 24.43 286.293 24.32 286.293 24.1C286.293 23.88 286.33 23.77 286.403 23.77C287.393 23.77 288.145 23.7883 288.658 23.825L291.958 23.88L293.938 23.825C294.305 23.7883 294.873 23.77 295.643 23.77ZM314.045 23.77C314.265 23.77 314.393 23.8067 314.43 23.88C314.467 23.9167 314.485 24.045 314.485 24.265C314.485 24.9983 314.467 25.6583 314.43 26.245C314.393 26.795 314.357 27.2717 314.32 27.675L314.21 30.92C314.21 30.9933 314.1 31.03 313.88 31.03C313.697 31.03 313.587 30.9933 313.55 30.92C313.403 28.5733 312.908 26.9233 312.065 25.97C311.222 25.0167 309.883 24.54 308.05 24.54C306.95 24.54 306.125 24.65 305.575 24.87C305.062 25.09 304.695 25.475 304.475 26.025C304.292 26.5383 304.2 27.3083 304.2 28.335V40.545C304.2 41.645 304.273 42.47 304.42 43.02C304.603 43.5333 304.933 43.8817 305.41 44.065C305.923 44.2483 306.693 44.34 307.72 44.34C307.793 44.34 307.83 44.45 307.83 44.67C307.83 44.89 307.793 45 307.72 45C306.767 45 306.015 44.9817 305.465 44.945L302.715 44.89L299.8 44.945C299.287 44.9817 298.553 45 297.6 45C297.49 45 297.435 44.89 297.435 44.67C297.435 44.45 297.49 44.34 297.6 44.34C298.627 44.34 299.378 44.2483 299.855 44.065C300.368 43.8817 300.698 43.5333 300.845 43.02C301.028 42.47 301.12 41.645 301.12 40.545V28.225C301.12 27.125 301.028 26.3183 300.845 25.805C300.698 25.255 300.387 24.8883 299.91 24.705C299.433 24.5217 298.682 24.43 297.655 24.43C297.545 24.43 297.49 24.32 297.49 24.1C297.49 23.88 297.545 23.77 297.655 23.77H314.045ZM342.924 44.34C342.997 44.34 343.034 44.45 343.034 44.67C343.034 44.89 342.997 45 342.924 45C342.007 45 341.292 44.9817 340.779 44.945L337.974 44.89L335.004 44.945C334.454 44.9817 333.739 45 332.859 45C332.749 45 332.694 44.89 332.694 44.67C332.694 44.45 332.749 44.34 332.859 44.34C333.885 44.34 334.637 44.2483 335.114 44.065C335.59 43.8817 335.92 43.5333 336.104 43.02C336.287 42.47 336.379 41.645 336.379 40.545V27.73L322.189 45.385C322.079 45.495 321.95 45.55 321.804 45.55C321.657 45.55 321.529 45.5133 321.419 45.44C321.309 45.4033 321.254 45.3483 321.254 45.275V28.225C321.254 27.125 321.162 26.3183 320.979 25.805C320.832 25.255 320.52 24.8883 320.044 24.705C319.567 24.5217 318.815 24.43 317.789 24.43C317.715 24.43 317.679 24.32 317.679 24.1C317.679 23.88 317.715 23.77 317.789 23.77C318.669 23.77 319.347 23.7883 319.824 23.825L322.739 23.88L325.929 23.825C326.442 23.7883 327.084 23.77 327.854 23.77C327.964 23.77 328.019 23.88 328.019 24.1C328.019 24.32 327.964 24.43 327.854 24.43C326.827 24.43 326.075 24.5217 325.599 24.705C325.122 24.8883 324.792 25.255 324.609 25.805C324.425 26.3183 324.334 27.125 324.334 28.225V41.04L338.524 23.385C338.634 23.275 338.762 23.22 338.909 23.22C339.055 23.22 339.184 23.2567 339.294 23.33C339.404 23.3667 339.459 23.4217 339.459 23.495V40.545C339.459 41.645 339.55 42.47 339.734 43.02C339.917 43.5333 340.229 43.8817 340.669 44.065C341.145 44.2483 341.897 44.34 342.924 44.34ZM383.96 44.34C384.033 44.34 384.07 44.45 384.07 44.67C384.07 44.89 384.033 45 383.96 45C383.007 45 382.255 44.9817 381.705 44.945L378.955 44.89L376.04 44.945C375.527 44.9817 374.83 45 373.95 45C373.84 45 373.785 44.89 373.785 44.67C373.785 44.45 373.84 44.34 373.95 44.34C374.94 44.34 375.673 44.2483 376.15 44.065C376.627 43.8817 376.938 43.5333 377.085 43.02C377.268 42.47 377.36 41.645 377.36 40.545V28.225C377.36 26.9783 377.323 26.1533 377.25 25.75C377.177 25.3467 376.975 25.09 376.645 24.98C376.315 24.87 375.673 24.815 374.72 24.815H368.34C367.35 24.815 366.69 24.87 366.36 24.98C366.03 25.09 365.828 25.365 365.755 25.805C365.682 26.2083 365.645 27.0517 365.645 28.335V40.545C365.645 41.645 365.718 42.47 365.865 43.02C366.048 43.5333 366.36 43.8817 366.8 44.065C367.277 44.2483 368.01 44.34 369 44.34C369.073 44.34 369.11 44.45 369.11 44.67C369.11 44.89 369.073 45 369 45C368.083 45 367.368 44.9817 366.855 44.945L364.16 44.89L361.245 44.945C360.732 44.9817 359.998 45 359.045 45C358.935 45 358.88 44.89 358.88 44.67C358.88 44.45 358.935 44.34 359.045 44.34C360.072 44.34 360.823 44.2483 361.3 44.065C361.813 43.8817 362.143 43.5333 362.29 43.02C362.473 42.47 362.565 41.645 362.565 40.545V28.225C362.565 27.125 362.473 26.3183 362.29 25.805C362.143 25.255 361.832 24.8883 361.355 24.705C360.878 24.5217 360.127 24.43 359.1 24.43C358.99 24.43 358.935 24.32 358.935 24.1C358.935 23.88 358.99 23.77 359.1 23.77H383.96C384.033 23.77 384.07 23.88 384.07 24.1C384.07 24.32 384.033 24.43 383.96 24.43C382.933 24.43 382.163 24.54 381.65 24.76C381.173 24.98 380.843 25.365 380.66 25.915C380.513 26.4283 380.44 27.235 380.44 28.335V40.545C380.44 41.645 380.513 42.47 380.66 43.02C380.843 43.5333 381.173 43.8817 381.65 44.065C382.163 44.2483 382.933 44.34 383.96 44.34ZM398.35 45.715C396.223 45.715 394.335 45.2017 392.685 44.175C391.071 43.1117 389.825 41.7 388.945 39.94C388.065 38.1433 387.625 36.2 387.625 34.11C387.625 31.7267 388.193 29.71 389.33 28.06C390.503 26.3733 391.988 25.1267 393.785 24.32C395.618 23.4767 397.47 23.055 399.34 23.055C401.503 23.055 403.391 23.5867 405.005 24.65C406.618 25.7133 407.846 27.125 408.69 28.885C409.57 30.6083 410.01 32.4417 410.01 34.385C410.01 36.6583 409.478 38.6567 408.415 40.38C407.351 42.0667 405.921 43.3867 404.125 44.34C402.365 45.2567 400.44 45.715 398.35 45.715ZM399.945 44.67C401.961 44.67 403.52 43.955 404.62 42.525C405.72 41.095 406.27 38.895 406.27 35.925C406.27 33.6517 405.885 31.6167 405.115 29.82C404.381 28.0233 403.355 26.63 402.035 25.64C400.715 24.6133 399.211 24.1 397.525 24.1C395.545 24.1 394.005 24.815 392.905 26.245C391.841 27.675 391.31 29.7283 391.31 32.405C391.31 34.6417 391.676 36.695 392.41 38.565C393.143 40.435 394.17 41.92 395.49 43.02C396.81 44.12 398.295 44.67 399.945 44.67ZM442.124 23.055C443.627 23.055 445.02 23.4583 446.304 24.265C447.587 25.0717 448.614 26.245 449.384 27.785C450.154 29.325 450.539 31.1217 450.539 33.175C450.539 35.925 449.915 38.2533 448.669 40.16C447.422 42.03 445.882 43.4233 444.049 44.34C442.252 45.2567 440.474 45.715 438.714 45.715C437.54 45.715 436.514 45.605 435.634 45.385C434.754 45.2017 433.837 44.835 432.884 44.285V55.67C432.884 56.77 433.012 57.5767 433.269 58.09C433.562 58.6033 434.094 58.9517 434.864 59.135C435.634 59.355 436.807 59.465 438.384 59.465C438.494 59.465 438.549 59.575 438.549 59.795C438.549 60.015 438.494 60.125 438.384 60.125C437.1 60.125 436.092 60.1067 435.359 60.07L431.344 60.015L428.099 60.07C427.549 60.1067 426.779 60.125 425.789 60.125C425.679 60.125 425.624 60.015 425.624 59.795C425.624 59.575 425.679 59.465 425.789 59.465C426.962 59.465 427.824 59.355 428.374 59.135C428.924 58.9517 429.29 58.6033 429.474 58.09C429.694 57.5767 429.804 56.77 429.804 55.67V28.225C429.804 27.1617 429.657 26.3733 429.364 25.86C429.107 25.31 428.649 24.9433 427.989 24.76C427.365 24.54 426.43 24.43 425.184 24.43C425.074 24.43 425.019 24.32 425.019 24.1C425.019 23.88 425.074 23.77 425.184 23.77H431.839C432.279 23.77 432.554 23.8617 432.664 24.045C432.81 24.2283 432.884 24.6133 432.884 25.2V27.785C434.46 26.1717 436 24.98 437.504 24.21C439.007 23.44 440.547 23.055 442.124 23.055ZM440.364 44.56C442.307 44.56 443.902 43.6983 445.149 41.975C446.395 40.2517 447.019 37.8867 447.019 34.88C447.019 31.8 446.34 29.4167 444.984 27.73C443.627 26.0067 441.885 25.145 439.759 25.145C438.475 25.145 437.284 25.4567 436.184 26.08C435.084 26.7033 433.984 27.6017 432.884 28.775V41.04C433.874 42.1767 434.937 43.0567 436.074 43.68C437.247 44.2667 438.677 44.56 440.364 44.56ZM472.367 41.92C472.477 41.92 472.569 41.9933 472.642 42.14C472.752 42.25 472.77 42.36 472.697 42.47C470.277 44.5967 467.6 45.66 464.667 45.66C462.54 45.66 460.725 45.165 459.222 44.175C457.719 43.185 456.564 41.8833 455.757 40.27C454.987 38.6567 454.602 36.9333 454.602 35.1C454.602 32.9367 455.115 30.9567 456.142 29.16C457.169 27.3267 458.562 25.8967 460.322 24.87C462.119 23.8067 464.08 23.275 466.207 23.275C468.26 23.275 469.837 23.825 470.937 24.925C472.037 26.025 472.587 27.565 472.587 29.545C472.587 30.0583 472.532 30.425 472.422 30.645C472.349 30.865 472.202 30.975 471.982 30.975L458.342 31.03C458.269 31.8367 458.232 32.4967 458.232 33.01C458.232 36.2 458.984 38.785 460.487 40.765C461.99 42.745 464.099 43.735 466.812 43.735C467.912 43.735 468.847 43.5883 469.617 43.295C470.424 43.0017 471.322 42.5433 472.312 41.92H472.367ZM464.392 24.375C462.815 24.375 461.514 24.9067 460.487 25.97C459.46 26.9967 458.782 28.445 458.452 30.315L468.902 30.095C468.902 28.225 468.499 26.8133 467.692 25.86C466.885 24.87 465.785 24.375 464.392 24.375ZM505.323 44.34C505.397 44.34 505.433 44.45 505.433 44.67C505.433 44.89 505.397 45 505.323 45C504.333 45 503.563 44.9817 503.013 44.945L500.318 44.89L497.678 44.945C497.238 44.9817 496.633 45 495.863 45C495.753 45 495.698 44.89 495.698 44.67C495.698 44.45 495.753 44.34 495.863 44.34C496.927 44.34 497.678 44.1933 498.118 43.9C498.558 43.57 498.778 42.9467 498.778 42.03C498.778 41.81 498.742 41.3333 498.668 40.6L497.128 29.435L490.363 45C490.327 45.1467 490.18 45.22 489.923 45.22C489.74 45.22 489.593 45.1467 489.483 45L481.563 29.6L480.463 39.28C480.427 39.5733 480.408 39.9767 480.408 40.49C480.408 41.8467 480.702 42.8367 481.288 43.46C481.875 44.0467 482.773 44.34 483.983 44.34C484.093 44.34 484.148 44.45 484.148 44.67C484.148 44.89 484.093 45 483.983 45C483.177 45 482.572 44.9817 482.168 44.945L479.913 44.89L477.603 44.945C477.163 44.9817 476.54 45 475.733 45C475.623 45 475.568 44.89 475.568 44.67C475.568 44.45 475.623 44.34 475.733 44.34C476.98 44.34 477.86 43.9733 478.373 43.24C478.887 42.5067 479.217 41.1867 479.363 39.28L480.738 23.495C480.738 23.385 480.793 23.3117 480.903 23.275C481.05 23.2017 481.197 23.165 481.343 23.165C481.6 23.165 481.783 23.22 481.893 23.33L490.968 40.82L498.613 23.385C498.65 23.2383 498.815 23.165 499.108 23.165C499.292 23.165 499.438 23.2017 499.548 23.275C499.695 23.3483 499.787 23.44 499.823 23.55L501.748 40.545C501.895 41.755 502.042 42.5983 502.188 43.075C502.372 43.5517 502.683 43.8817 503.123 44.065C503.563 44.2483 504.297 44.34 505.323 44.34ZM518.662 45.715C516.535 45.715 514.647 45.2017 512.997 44.175C511.384 43.1117 510.137 41.7 509.257 39.94C508.377 38.1433 507.937 36.2 507.937 34.11C507.937 31.7267 508.505 29.71 509.642 28.06C510.815 26.3733 512.3 25.1267 514.097 24.32C515.93 23.4767 517.782 23.055 519.652 23.055C521.815 23.055 523.704 23.5867 525.317 24.65C526.93 25.7133 528.159 27.125 529.002 28.885C529.882 30.6083 530.322 32.4417 530.322 34.385C530.322 36.6583 529.79 38.6567 528.727 40.38C527.664 42.0667 526.234 43.3867 524.437 44.34C522.677 45.2567 520.752 45.715 518.662 45.715ZM520.257 44.67C522.274 44.67 523.832 43.955 524.932 42.525C526.032 41.095 526.582 38.895 526.582 35.925C526.582 33.6517 526.197 31.6167 525.427 29.82C524.694 28.0233 523.667 26.63 522.347 25.64C521.027 24.6133 519.524 24.1 517.837 24.1C515.857 24.1 514.317 24.815 513.217 26.245C512.154 27.675 511.622 29.7283 511.622 32.405C511.622 34.6417 511.989 36.695 512.722 38.565C513.455 40.435 514.482 41.92 515.802 43.02C517.122 44.12 518.607 44.67 520.257 44.67ZM558.95 44.34C559.024 44.34 559.06 44.45 559.06 44.67C559.06 44.89 559.024 45 558.95 45C557.997 45 557.245 44.9817 556.695 44.945L553.945 44.89L550.975 44.945C550.462 44.9817 549.747 45 548.83 45C548.72 45 548.665 44.89 548.665 44.67C548.665 44.45 548.72 44.34 548.83 44.34C549.857 44.34 550.609 44.2483 551.085 44.065C551.562 43.8817 551.892 43.5333 552.075 43.02C552.259 42.47 552.35 41.645 552.35 40.545V34.935H540.635V40.545C540.635 41.645 540.709 42.47 540.855 43.02C541.039 43.5333 541.369 43.8817 541.845 44.065C542.359 44.2483 543.129 44.34 544.155 44.34C544.229 44.34 544.265 44.45 544.265 44.67C544.265 44.89 544.229 45 544.155 45C543.202 45 542.45 44.9817 541.9 44.945L539.15 44.89L536.235 44.945C535.722 44.9817 534.989 45 534.035 45C533.925 45 533.87 44.89 533.87 44.67C533.87 44.45 533.925 44.34 534.035 44.34C535.062 44.34 535.814 44.2483 536.29 44.065C536.804 43.8817 537.134 43.5333 537.28 43.02C537.464 42.47 537.555 41.645 537.555 40.545V28.225C537.555 27.125 537.464 26.3183 537.28 25.805C537.134 25.255 536.822 24.8883 536.345 24.705C535.869 24.5217 535.117 24.43 534.09 24.43C533.98 24.43 533.925 24.32 533.925 24.1C533.925 23.88 533.98 23.77 534.09 23.77C535.007 23.77 535.722 23.7883 536.235 23.825L539.15 23.88L541.955 23.825C542.505 23.7883 543.239 23.77 544.155 23.77C544.229 23.77 544.265 23.88 544.265 24.1C544.265 24.32 544.229 24.43 544.155 24.43C543.129 24.43 542.359 24.54 541.845 24.76C541.369 24.98 541.039 25.365 540.855 25.915C540.709 26.4283 540.635 27.235 540.635 28.335V33.835H552.35V28.225C552.35 27.125 552.259 26.3183 552.075 25.805C551.929 25.255 551.617 24.8883 551.14 24.705C550.664 24.5217 549.912 24.43 548.885 24.43C548.775 24.43 548.72 24.32 548.72 24.1C548.72 23.88 548.775 23.77 548.885 23.77C549.802 23.77 550.517 23.7883 551.03 23.825L553.945 23.88L556.75 23.825C557.3 23.7883 558.034 23.77 558.95 23.77C559.024 23.77 559.06 23.88 559.06 24.1C559.06 24.32 559.024 24.43 558.95 24.43C557.924 24.43 557.154 24.54 556.64 24.76C556.164 24.98 555.834 25.365 555.65 25.915C555.504 26.4283 555.43 27.235 555.43 28.335V40.545C555.43 41.645 555.504 42.47 555.65 43.02C555.834 43.5333 556.164 43.8817 556.64 44.065C557.154 44.2483 557.924 44.34 558.95 44.34ZM567.345 45C567.271 45 567.235 44.89 567.235 44.67C567.235 44.45 567.271 44.34 567.345 44.34C568.371 44.34 569.123 44.2483 569.6 44.065C570.113 43.8817 570.443 43.5333 570.59 43.02C570.773 42.47 570.865 41.645 570.865 40.545V28.335C570.865 26.8317 570.7 25.8417 570.37 25.365C570.04 24.8517 569.325 24.595 568.225 24.595C566.575 24.595 565.365 25.09 564.595 26.08C563.825 27.07 563.403 28.6833 563.33 30.92C563.33 30.9933 563.22 31.03 563 31.03C562.816 31.03 562.725 30.9933 562.725 30.92L562.615 27.62C562.578 27.2167 562.541 26.74 562.505 26.19C562.468 25.6033 562.45 24.9433 562.45 24.21C562.45 23.99 562.468 23.8617 562.505 23.825C562.541 23.7517 562.67 23.715 562.89 23.715C563.66 23.715 564.338 23.7333 564.925 23.77L572.295 23.825L579.83 23.77C580.453 23.7333 581.15 23.715 581.92 23.715C582.176 23.715 582.323 23.7517 582.36 23.825C582.396 23.8617 582.415 23.99 582.415 24.21C582.231 27.8767 582.14 30.1133 582.14 30.92C582.14 30.9933 582.03 31.03 581.81 31.03C581.626 31.03 581.516 30.9933 581.48 30.92C581.406 28.6833 580.985 27.07 580.215 26.08C579.445 25.09 578.253 24.595 576.64 24.595C575.54 24.595 574.825 24.8517 574.495 25.365C574.165 25.8417 574 26.8317 574 28.335V40.545C574 41.645 574.073 42.47 574.22 43.02C574.403 43.5333 574.733 43.8817 575.21 44.065C575.686 44.2483 576.438 44.34 577.465 44.34C577.575 44.34 577.63 44.45 577.63 44.67C577.63 44.89 577.575 45 577.465 45C576.548 45 575.833 44.9817 575.32 44.945L572.46 44.89L569.655 44.945C569.105 44.9817 568.335 45 567.345 45ZM607.919 23.77C608.029 23.77 608.084 23.88 608.084 24.1C608.084 24.32 608.029 24.43 607.919 24.43C607.002 24.43 606.214 24.76 605.554 25.42C604.894 26.0433 604.271 27.125 603.684 28.665L594.774 51.6C593.821 54.02 593.106 56.2933 592.629 58.42C592.446 59.19 592.299 59.6667 592.189 59.85C592.079 60.0333 591.804 60.125 591.364 60.125H584.214C584.141 60.125 584.104 60.015 584.104 59.795C584.104 59.575 584.141 59.465 584.214 59.465C586.341 59.3917 588.156 58.7867 589.659 57.65C591.199 56.5133 592.611 54.3867 593.894 51.27L596.369 45.33L588.009 28.335C587.166 26.7217 586.524 25.6767 586.084 25.2C585.644 24.6867 585.076 24.43 584.379 24.43C584.306 24.43 584.269 24.32 584.269 24.1C584.269 23.88 584.306 23.77 584.379 23.77L586.249 23.825C586.689 23.8617 587.294 23.88 588.064 23.88L591.584 23.825C592.097 23.7883 592.812 23.77 593.729 23.77C593.802 23.77 593.839 23.88 593.839 24.1C593.839 24.32 593.802 24.43 593.729 24.43C591.602 24.43 590.539 24.8517 590.539 25.695C590.539 25.915 590.631 26.2083 590.814 26.575L598.019 41.315L602.474 28.83C602.767 27.95 602.914 27.2533 602.914 26.74C602.914 25.8967 602.584 25.31 601.924 24.98C601.264 24.6133 600.182 24.43 598.679 24.43C598.606 24.43 598.569 24.32 598.569 24.1C598.569 23.88 598.606 23.77 598.679 23.77C599.669 23.77 600.421 23.7883 600.934 23.825L604.234 23.88L606.214 23.825C606.581 23.7883 607.149 23.77 607.919 23.77ZM636.901 33.285C638.954 33.4683 640.476 33.9817 641.466 34.825C642.456 35.6317 642.951 36.7867 642.951 38.29C642.951 40.27 642.181 41.9017 640.641 43.185C639.101 44.4683 637.139 45.11 634.756 45.11C634.206 45.11 633.161 45.0733 631.621 45C629.861 44.9267 628.614 44.89 627.881 44.89L624.966 44.945C624.453 44.9817 623.719 45 622.766 45C622.656 45 622.601 44.89 622.601 44.67C622.601 44.45 622.656 44.34 622.766 44.34C623.793 44.34 624.544 44.2483 625.021 44.065C625.534 43.8817 625.864 43.5333 626.011 43.02C626.194 42.47 626.286 41.645 626.286 40.545V28.225C626.286 27.125 626.194 26.3183 626.011 25.805C625.864 25.255 625.553 24.8883 625.076 24.705C624.599 24.5217 623.848 24.43 622.821 24.43C622.711 24.43 622.656 24.32 622.656 24.1C622.656 23.88 622.711 23.77 622.821 23.77L627.881 23.825L630.741 23.77C632.208 23.6967 633.289 23.66 633.986 23.66C636.149 23.66 637.799 24.0083 638.936 24.705C640.073 25.4017 640.641 26.4467 640.641 27.84C640.641 28.7933 640.329 29.71 639.706 30.59C639.119 31.47 638.184 32.3683 636.901 33.285ZM632.556 24.43C631.676 24.43 631.016 24.5217 630.576 24.705C630.136 24.8883 629.824 25.255 629.641 25.805C629.458 26.355 629.366 27.1983 629.366 28.335V33.23H635.086H635.691C636.681 32.24 637.176 30.865 637.176 29.105C637.176 27.4917 636.791 26.3183 636.021 25.585C635.251 24.815 634.096 24.43 632.556 24.43ZM633.766 44.23C637.506 44.23 639.376 42.6717 639.376 39.555C639.376 37.8683 638.863 36.5483 637.836 35.595C636.846 34.605 635.288 34.11 633.161 34.11H629.366V40.545C629.366 41.9017 629.659 42.855 630.246 43.405C630.833 43.955 632.006 44.23 633.766 44.23ZM667.947 42.03C668.094 42.03 668.185 42.1217 668.222 42.305C668.259 42.4517 668.204 42.5617 668.057 42.635L662.392 45.33C662.245 45.4033 662.099 45.44 661.952 45.44C661.475 45.44 661.054 45.1283 660.687 44.505C660.32 43.845 660.082 42.965 659.972 41.865L657.112 43.735C656.195 44.3217 655.389 44.7433 654.692 45C653.995 45.2567 653.262 45.385 652.492 45.385C651.135 45.385 650.072 45.0367 649.302 44.34C648.569 43.6067 648.202 42.69 648.202 41.59C648.202 40.49 648.642 39.5367 649.522 38.73C650.402 37.9233 651.85 37.1533 653.867 36.42L659.917 34.165V30.425C659.917 26.3183 658.762 24.265 656.452 24.265C655.205 24.265 654.252 24.6867 653.592 25.53C652.969 26.3367 652.547 27.2717 652.327 28.335C652.217 28.995 652.015 29.545 651.722 29.985C651.429 30.3883 650.934 30.59 650.237 30.59C649.65 30.59 649.192 30.425 648.862 30.095C648.569 29.765 648.422 29.38 648.422 28.94C648.422 28.06 648.99 27.18 650.127 26.3C651.264 25.42 652.62 24.6867 654.197 24.1C655.774 23.5133 657.185 23.22 658.432 23.22C659.935 23.22 661.072 23.6967 661.842 24.65C662.612 25.6033 662.997 26.9783 662.997 28.775V39.06C662.997 40.3433 663.162 41.2783 663.492 41.865C663.822 42.4517 664.372 42.745 665.142 42.745C665.839 42.745 666.737 42.5067 667.837 42.03H667.947ZM659.917 41.095V40.82V34.935L654.802 36.915C653.775 37.3183 653.024 37.795 652.547 38.345C652.107 38.8583 651.887 39.4817 651.887 40.215C651.887 41.095 652.162 41.8467 652.712 42.47C653.299 43.0567 654.05 43.35 654.967 43.35C655.7 43.35 656.58 43.0567 657.607 42.47L659.917 41.095ZM694.839 44.34C694.912 44.34 694.949 44.45 694.949 44.67C694.949 44.89 694.912 45 694.839 45C693.886 45 693.134 44.9817 692.584 44.945L689.834 44.89L686.864 44.945C686.351 44.9817 685.636 45 684.719 45C684.609 45 684.554 44.89 684.554 44.67C684.554 44.45 684.609 44.34 684.719 44.34C685.746 44.34 686.497 44.2483 686.974 44.065C687.451 43.8817 687.781 43.5333 687.964 43.02C688.147 42.47 688.239 41.645 688.239 40.545V34.935H676.524V40.545C676.524 41.645 676.597 42.47 676.744 43.02C676.927 43.5333 677.257 43.8817 677.734 44.065C678.247 44.2483 679.017 44.34 680.044 44.34C680.117 44.34 680.154 44.45 680.154 44.67C680.154 44.89 680.117 45 680.044 45C679.091 45 678.339 44.9817 677.789 44.945L675.039 44.89L672.124 44.945C671.611 44.9817 670.877 45 669.924 45C669.814 45 669.759 44.89 669.759 44.67C669.759 44.45 669.814 44.34 669.924 44.34C670.951 44.34 671.702 44.2483 672.179 44.065C672.692 43.8817 673.022 43.5333 673.169 43.02C673.352 42.47 673.444 41.645 673.444 40.545V28.225C673.444 27.125 673.352 26.3183 673.169 25.805C673.022 25.255 672.711 24.8883 672.234 24.705C671.757 24.5217 671.006 24.43 669.979 24.43C669.869 24.43 669.814 24.32 669.814 24.1C669.814 23.88 669.869 23.77 669.979 23.77C670.896 23.77 671.611 23.7883 672.124 23.825L675.039 23.88L677.844 23.825C678.394 23.7883 679.127 23.77 680.044 23.77C680.117 23.77 680.154 23.88 680.154 24.1C680.154 24.32 680.117 24.43 680.044 24.43C679.017 24.43 678.247 24.54 677.734 24.76C677.257 24.98 676.927 25.365 676.744 25.915C676.597 26.4283 676.524 27.235 676.524 28.335V33.835H688.239V28.225C688.239 27.125 688.147 26.3183 687.964 25.805C687.817 25.255 687.506 24.8883 687.029 24.705C686.552 24.5217 685.801 24.43 684.774 24.43C684.664 24.43 684.609 24.32 684.609 24.1C684.609 23.88 684.664 23.77 684.774 23.77C685.691 23.77 686.406 23.7883 686.919 23.825L689.834 23.88L692.639 23.825C693.189 23.7883 693.922 23.77 694.839 23.77C694.912 23.77 694.949 23.88 694.949 24.1C694.949 24.32 694.912 24.43 694.839 24.43C693.812 24.43 693.042 24.54 692.529 24.76C692.052 24.98 691.722 25.365 691.539 25.915C691.392 26.4283 691.319 27.235 691.319 28.335V40.545C691.319 41.645 691.392 42.47 691.539 43.02C691.722 43.5333 692.052 43.8817 692.529 44.065C693.042 44.2483 693.812 44.34 694.839 44.34ZM723.198 44.34C723.272 44.34 723.308 44.45 723.308 44.67C723.308 44.89 723.272 45 723.198 45C722.245 45 721.493 44.9817 720.943 44.945L718.193 44.89L715.223 44.945C714.71 44.9817 713.995 45 713.078 45C712.968 45 712.913 44.89 712.913 44.67C712.913 44.45 712.968 44.34 713.078 44.34C714.105 44.34 714.857 44.2483 715.333 44.065C715.81 43.8817 716.14 43.5333 716.323 43.02C716.507 42.47 716.598 41.645 716.598 40.545V34.935H704.883V40.545C704.883 41.645 704.957 42.47 705.103 43.02C705.287 43.5333 705.617 43.8817 706.093 44.065C706.607 44.2483 707.377 44.34 708.403 44.34C708.477 44.34 708.513 44.45 708.513 44.67C708.513 44.89 708.477 45 708.403 45C707.45 45 706.698 44.9817 706.148 44.945L703.398 44.89L700.483 44.945C699.97 44.9817 699.237 45 698.283 45C698.173 45 698.118 44.89 698.118 44.67C698.118 44.45 698.173 44.34 698.283 44.34C699.31 44.34 700.062 44.2483 700.538 44.065C701.052 43.8817 701.382 43.5333 701.528 43.02C701.712 42.47 701.803 41.645 701.803 40.545V28.225C701.803 27.125 701.712 26.3183 701.528 25.805C701.382 25.255 701.07 24.8883 700.593 24.705C700.117 24.5217 699.365 24.43 698.338 24.43C698.228 24.43 698.173 24.32 698.173 24.1C698.173 23.88 698.228 23.77 698.338 23.77C699.255 23.77 699.97 23.7883 700.483 23.825L703.398 23.88L706.203 23.825C706.753 23.7883 707.487 23.77 708.403 23.77C708.477 23.77 708.513 23.88 708.513 24.1C708.513 24.32 708.477 24.43 708.403 24.43C707.377 24.43 706.607 24.54 706.093 24.76C705.617 24.98 705.287 25.365 705.103 25.915C704.957 26.4283 704.883 27.235 704.883 28.335V33.835H716.598V28.225C716.598 27.125 716.507 26.3183 716.323 25.805C716.177 25.255 715.865 24.8883 715.388 24.705C714.912 24.5217 714.16 24.43 713.133 24.43C713.023 24.43 712.968 24.32 712.968 24.1C712.968 23.88 713.023 23.77 713.133 23.77C714.05 23.77 714.765 23.7883 715.278 23.825L718.193 23.88L720.998 23.825C721.548 23.7883 722.282 23.77 723.198 23.77C723.272 23.77 723.308 23.88 723.308 24.1C723.308 24.32 723.272 24.43 723.198 24.43C722.172 24.43 721.402 24.54 720.888 24.76C720.412 24.98 720.082 25.365 719.898 25.915C719.752 26.4283 719.678 27.235 719.678 28.335V40.545C719.678 41.645 719.752 42.47 719.898 43.02C720.082 43.5333 720.412 43.8817 720.888 44.065C721.402 44.2483 722.172 44.34 723.198 44.34ZM737.588 45.715C735.461 45.715 733.573 45.2017 731.923 44.175C730.309 43.1117 729.063 41.7 728.183 39.94C727.303 38.1433 726.863 36.2 726.863 34.11C726.863 31.7267 727.431 29.71 728.568 28.06C729.741 26.3733 731.226 25.1267 733.023 24.32C734.856 23.4767 736.708 23.055 738.578 23.055C740.741 23.055 742.629 23.5867 744.243 24.65C745.856 25.7133 747.084 27.125 747.928 28.885C748.808 30.6083 749.248 32.4417 749.248 34.385C749.248 36.6583 748.716 38.6567 747.653 40.38C746.589 42.0667 745.159 43.3867 743.363 44.34C741.603 45.2567 739.678 45.715 737.588 45.715ZM739.183 44.67C741.199 44.67 742.758 43.955 743.858 42.525C744.958 41.095 745.508 38.895 745.508 35.925C745.508 33.6517 745.123 31.6167 744.353 29.82C743.619 28.0233 742.593 26.63 741.273 25.64C739.953 24.6133 738.449 24.1 736.763 24.1C734.783 24.1 733.243 24.815 732.143 26.245C731.079 27.675 730.548 29.7283 730.548 32.405C730.548 34.6417 730.914 36.695 731.648 38.565C732.381 40.435 733.408 41.92 734.728 43.02C736.048 44.12 737.533 44.67 739.183 44.67ZM765.446 19.425C764.2 19.425 763.026 19.1867 761.926 18.71C760.826 18.2333 759.946 17.61 759.286 16.84C758.626 16.0333 758.296 15.2083 758.296 14.365C758.296 13.3017 758.828 12.77 759.891 12.77C760.588 12.77 761.065 12.9717 761.321 13.375C761.578 13.7783 761.835 14.4567 762.091 15.41C762.275 16.18 762.44 16.7667 762.586 17.17C762.77 17.5733 763.081 17.94 763.521 18.27C763.961 18.5633 764.585 18.71 765.391 18.71C766.491 18.71 767.28 18.4167 767.756 17.83C768.233 17.2433 768.581 16.4367 768.801 15.41C769.021 14.53 769.26 13.87 769.516 13.43C769.81 12.99 770.286 12.77 770.946 12.77C772.046 12.77 772.596 13.32 772.596 14.42C772.596 15.3 772.248 16.125 771.551 16.895C770.891 17.665 770.011 18.2883 768.911 18.765C767.811 19.205 766.656 19.425 765.446 19.425ZM777.821 44.34C777.895 44.34 777.931 44.45 777.931 44.67C777.931 44.89 777.895 45 777.821 45C776.905 45 776.19 44.9817 775.676 44.945L772.871 44.89L769.901 44.945C769.351 44.9817 768.636 45 767.756 45C767.646 45 767.591 44.89 767.591 44.67C767.591 44.45 767.646 44.34 767.756 44.34C768.783 44.34 769.535 44.2483 770.011 44.065C770.488 43.8817 770.818 43.5333 771.001 43.02C771.185 42.47 771.276 41.645 771.276 40.545V27.73L757.086 45.385C756.976 45.495 756.848 45.55 756.701 45.55C756.555 45.55 756.426 45.5133 756.316 45.44C756.206 45.4033 756.151 45.3483 756.151 45.275V28.225C756.151 27.125 756.06 26.3183 755.876 25.805C755.73 25.255 755.418 24.8883 754.941 24.705C754.465 24.5217 753.713 24.43 752.686 24.43C752.613 24.43 752.576 24.32 752.576 24.1C752.576 23.88 752.613 23.77 752.686 23.77C753.566 23.77 754.245 23.7883 754.721 23.825L757.636 23.88L760.826 23.825C761.34 23.7883 761.981 23.77 762.751 23.77C762.861 23.77 762.916 23.88 762.916 24.1C762.916 24.32 762.861 24.43 762.751 24.43C761.725 24.43 760.973 24.5217 760.496 24.705C760.02 24.8883 759.69 25.255 759.506 25.805C759.323 26.3183 759.231 27.125 759.231 28.225V41.04L773.421 23.385C773.531 23.275 773.66 23.22 773.806 23.22C773.953 23.22 774.081 23.2567 774.191 23.33C774.301 23.3667 774.356 23.4217 774.356 23.495V40.545C774.356 41.645 774.448 42.47 774.631 43.02C774.815 43.5333 775.126 43.8817 775.566 44.065C776.043 44.2483 776.795 44.34 777.821 44.34ZM817.483 44.34C817.556 44.34 817.593 44.45 817.593 44.67C817.593 44.89 817.556 45 817.483 45H811.378C811.121 45 810.938 44.945 810.828 44.835C810.754 44.6883 810.461 44.175 809.948 43.295C809.471 42.415 808.793 41.2233 807.913 39.72C806.996 38.2167 806.226 37.0983 805.603 36.365C805.016 35.6317 804.393 35.1367 803.733 34.88C803.109 34.5867 802.303 34.44 801.313 34.44H800.433V40.545C800.433 41.645 800.506 42.47 800.653 43.02C800.836 43.5333 801.166 43.8817 801.643 44.065C802.119 44.2483 802.871 44.34 803.898 44.34C803.971 44.34 804.008 44.45 804.008 44.67C804.008 44.89 803.971 45 803.898 45C802.981 45 802.248 44.9817 801.698 44.945L798.948 44.89L795.978 44.945C795.464 44.9817 794.749 45 793.833 45C793.723 45 793.668 44.89 793.668 44.67C793.668 44.45 793.723 44.34 793.833 44.34C794.859 44.34 795.611 44.2483 796.088 44.065C796.564 43.8817 796.876 43.5333 797.023 43.02C797.206 42.47 797.298 41.645 797.298 40.545V28.225C797.298 27.125 797.206 26.3183 797.023 25.805C796.876 25.255 796.564 24.8883 796.088 24.705C795.611 24.5217 794.878 24.43 793.888 24.43C793.778 24.43 793.723 24.32 793.723 24.1C793.723 23.88 793.778 23.77 793.888 23.77C794.768 23.77 795.464 23.7883 795.978 23.825L798.948 23.88L802.138 23.825C802.724 23.7883 803.513 23.77 804.503 23.77C804.613 23.77 804.668 23.88 804.668 24.1C804.668 24.32 804.613 24.43 804.503 24.43C803.329 24.43 802.449 24.54 801.863 24.76C801.313 24.9433 800.928 25.31 800.708 25.86C800.524 26.41 800.433 27.235 800.433 28.335V33.56C800.873 33.56 801.423 33.5233 802.083 33.45L803.843 33.395C804.759 33.395 805.676 32.515 806.593 30.755C806.703 30.535 806.794 30.3517 806.868 30.205C806.978 30.0217 807.069 29.8567 807.143 29.71C808.389 27.29 809.379 25.6217 810.113 24.705C810.883 23.7517 811.854 23.275 813.028 23.275C813.834 23.275 814.458 23.4583 814.898 23.825C815.338 24.1917 815.558 24.65 815.558 25.2C815.558 25.7867 815.356 26.2817 814.953 26.685C814.549 27.0883 814.018 27.29 813.358 27.29C812.954 27.29 812.533 27.1617 812.093 26.905C811.653 26.6483 811.304 26.52 811.048 26.52C810.314 26.52 809.104 28.0233 807.418 31.03C806.831 32.13 806.263 32.955 805.713 33.505C806.776 33.6517 807.638 34.0733 808.298 34.77C808.994 35.43 809.929 36.7133 811.103 38.62L811.873 39.885C812.606 41.0583 813.193 41.9383 813.633 42.525C814.073 43.075 814.586 43.515 815.173 43.845C815.759 44.1383 816.529 44.3033 817.483 44.34ZM829.219 45.715C827.092 45.715 825.204 45.2017 823.554 44.175C821.94 43.1117 820.694 41.7 819.814 39.94C818.934 38.1433 818.494 36.2 818.494 34.11C818.494 31.7267 819.062 29.71 820.199 28.06C821.372 26.3733 822.857 25.1267 824.654 24.32C826.487 23.4767 828.339 23.055 830.209 23.055C832.372 23.055 834.26 23.5867 835.874 24.65C837.487 25.7133 838.715 27.125 839.559 28.885C840.439 30.6083 840.879 32.4417 840.879 34.385C840.879 36.6583 840.347 38.6567 839.284 40.38C838.22 42.0667 836.79 43.3867 834.994 44.34C833.234 45.2567 831.309 45.715 829.219 45.715ZM830.814 44.67C832.83 44.67 834.389 43.955 835.489 42.525C836.589 41.095 837.139 38.895 837.139 35.925C837.139 33.6517 836.754 31.6167 835.984 29.82C835.25 28.0233 834.224 26.63 832.904 25.64C831.584 24.6133 830.08 24.1 828.394 24.1C826.414 24.1 824.874 24.815 823.774 26.245C822.71 27.675 822.179 29.7283 822.179 32.405C822.179 34.6417 822.545 36.695 823.279 38.565C824.012 40.435 825.039 41.92 826.359 43.02C827.679 44.12 829.164 44.67 830.814 44.67ZM873.082 44.34C873.155 44.34 873.192 44.45 873.192 44.67C873.192 44.89 873.155 45 873.082 45C872.092 45 871.322 44.9817 870.772 44.945L868.077 44.89L865.437 44.945C864.997 44.9817 864.392 45 863.622 45C863.512 45 863.457 44.89 863.457 44.67C863.457 44.45 863.512 44.34 863.622 44.34C864.685 44.34 865.437 44.1933 865.877 43.9C866.317 43.57 866.537 42.9467 866.537 42.03C866.537 41.81 866.5 41.3333 866.427 40.6L864.887 29.435L858.122 45C858.085 45.1467 857.939 45.22 857.682 45.22C857.499 45.22 857.352 45.1467 857.242 45L849.322 29.6L848.222 39.28C848.185 39.5733 848.167 39.9767 848.167 40.49C848.167 41.8467 848.46 42.8367 849.047 43.46C849.634 44.0467 850.532 44.34 851.742 44.34C851.852 44.34 851.907 44.45 851.907 44.67C851.907 44.89 851.852 45 851.742 45C850.935 45 850.33 44.9817 849.927 44.945L847.672 44.89L845.362 44.945C844.922 44.9817 844.299 45 843.492 45C843.382 45 843.327 44.89 843.327 44.67C843.327 44.45 843.382 44.34 843.492 44.34C844.739 44.34 845.619 43.9733 846.132 43.24C846.645 42.5067 846.975 41.1867 847.122 39.28L848.497 23.495C848.497 23.385 848.552 23.3117 848.662 23.275C848.809 23.2017 848.955 23.165 849.102 23.165C849.359 23.165 849.542 23.22 849.652 23.33L858.727 40.82L866.372 23.385C866.409 23.2383 866.574 23.165 866.867 23.165C867.05 23.165 867.197 23.2017 867.307 23.275C867.454 23.3483 867.545 23.44 867.582 23.55L869.507 40.545C869.654 41.755 869.8 42.5983 869.947 43.075C870.13 43.5517 870.442 43.8817 870.882 44.065C871.322 44.2483 872.055 44.34 873.082 44.34ZM900.391 44.34C900.464 44.34 900.501 44.45 900.501 44.67C900.501 44.89 900.464 45 900.391 45C899.437 45 898.686 44.9817 898.136 44.945L895.386 44.89L892.416 44.945C891.902 44.9817 891.187 45 890.271 45C890.161 45 890.106 44.89 890.106 44.67C890.106 44.45 890.161 44.34 890.271 44.34C891.297 44.34 892.049 44.2483 892.526 44.065C893.002 43.8817 893.332 43.5333 893.516 43.02C893.699 42.47 893.791 41.645 893.791 40.545V34.935H882.076V40.545C882.076 41.645 882.149 42.47 882.296 43.02C882.479 43.5333 882.809 43.8817 883.286 44.065C883.799 44.2483 884.569 44.34 885.596 44.34C885.669 44.34 885.706 44.45 885.706 44.67C885.706 44.89 885.669 45 885.596 45C884.642 45 883.891 44.9817 883.341 44.945L880.591 44.89L877.676 44.945C877.162 44.9817 876.429 45 875.476 45C875.366 45 875.311 44.89 875.311 44.67C875.311 44.45 875.366 44.34 875.476 44.34C876.502 44.34 877.254 44.2483 877.731 44.065C878.244 43.8817 878.574 43.5333 878.721 43.02C878.904 42.47 878.996 41.645 878.996 40.545V28.225C878.996 27.125 878.904 26.3183 878.721 25.805C878.574 25.255 878.262 24.8883 877.786 24.705C877.309 24.5217 876.557 24.43 875.531 24.43C875.421 24.43 875.366 24.32 875.366 24.1C875.366 23.88 875.421 23.77 875.531 23.77C876.447 23.77 877.162 23.7883 877.676 23.825L880.591 23.88L883.396 23.825C883.946 23.7883 884.679 23.77 885.596 23.77C885.669 23.77 885.706 23.88 885.706 24.1C885.706 24.32 885.669 24.43 885.596 24.43C884.569 24.43 883.799 24.54 883.286 24.76C882.809 24.98 882.479 25.365 882.296 25.915C882.149 26.4283 882.076 27.235 882.076 28.335V33.835H893.791V28.225C893.791 27.125 893.699 26.3183 893.516 25.805C893.369 25.255 893.057 24.8883 892.581 24.705C892.104 24.5217 891.352 24.43 890.326 24.43C890.216 24.43 890.161 24.32 890.161 24.1C890.161 23.88 890.216 23.77 890.326 23.77C891.242 23.77 891.957 23.7883 892.471 23.825L895.386 23.88L898.191 23.825C898.741 23.7883 899.474 23.77 900.391 23.77C900.464 23.77 900.501 23.88 900.501 24.1C900.501 24.32 900.464 24.43 900.391 24.43C899.364 24.43 898.594 24.54 898.081 24.76C897.604 24.98 897.274 25.365 897.091 25.915C896.944 26.4283 896.871 27.235 896.871 28.335V40.545C896.871 41.645 896.944 42.47 897.091 43.02C897.274 43.5333 897.604 43.8817 898.081 44.065C898.594 44.2483 899.364 44.34 900.391 44.34ZM924.9 42.03C925.047 42.03 925.139 42.1217 925.175 42.305C925.212 42.4517 925.157 42.5617 925.01 42.635L919.345 45.33C919.199 45.4033 919.052 45.44 918.905 45.44C918.429 45.44 918.007 45.1283 917.64 44.505C917.274 43.845 917.035 42.965 916.925 41.865L914.065 43.735C913.149 44.3217 912.342 44.7433 911.645 45C910.949 45.2567 910.215 45.385 909.445 45.385C908.089 45.385 907.025 45.0367 906.255 44.34C905.522 43.6067 905.155 42.69 905.155 41.59C905.155 40.49 905.595 39.5367 906.475 38.73C907.355 37.9233 908.804 37.1533 910.82 36.42L916.87 34.165V30.425C916.87 26.3183 915.715 24.265 913.405 24.265C912.159 24.265 911.205 24.6867 910.545 25.53C909.922 26.3367 909.5 27.2717 909.28 28.335C909.17 28.995 908.969 29.545 908.675 29.985C908.382 30.3883 907.887 30.59 907.19 30.59C906.604 30.59 906.145 30.425 905.815 30.095C905.522 29.765 905.375 29.38 905.375 28.94C905.375 28.06 905.944 27.18 907.08 26.3C908.217 25.42 909.574 24.6867 911.15 24.1C912.727 23.5133 914.139 23.22 915.385 23.22C916.889 23.22 918.025 23.6967 918.795 24.65C919.565 25.6033 919.95 26.9783 919.95 28.775V39.06C919.95 40.3433 920.115 41.2783 920.445 41.865C920.775 42.4517 921.325 42.745 922.095 42.745C922.792 42.745 923.69 42.5067 924.79 42.03H924.9ZM916.87 41.095V40.82V34.935L911.755 36.915C910.729 37.3183 909.977 37.795 909.5 38.345C909.06 38.8583 908.84 39.4817 908.84 40.215C908.84 41.095 909.115 41.8467 909.665 42.47C910.252 43.0567 911.004 43.35 911.92 43.35C912.654 43.35 913.534 43.0567 914.56 42.47L916.87 41.095ZM931.827 45C931.754 45 931.717 44.89 931.717 44.67C931.717 44.45 931.754 44.34 931.827 44.34C932.854 44.34 933.606 44.2483 934.082 44.065C934.596 43.8817 934.926 43.5333 935.072 43.02C935.256 42.47 935.347 41.645 935.347 40.545V28.335C935.347 26.8317 935.182 25.8417 934.852 25.365C934.522 24.8517 933.807 24.595 932.707 24.595C931.057 24.595 929.847 25.09 929.077 26.08C928.307 27.07 927.886 28.6833 927.812 30.92C927.812 30.9933 927.702 31.03 927.482 31.03C927.299 31.03 927.207 30.9933 927.207 30.92L927.097 27.62C927.061 27.2167 927.024 26.74 926.987 26.19C926.951 25.6033 926.932 24.9433 926.932 24.21C926.932 23.99 926.951 23.8617 926.987 23.825C927.024 23.7517 927.152 23.715 927.372 23.715C928.142 23.715 928.821 23.7333 929.407 23.77L936.777 23.825L944.312 23.77C944.936 23.7333 945.632 23.715 946.402 23.715C946.659 23.715 946.806 23.7517 946.842 23.825C946.879 23.8617 946.897 23.99 946.897 24.21C946.714 27.8767 946.622 30.1133 946.622 30.92C946.622 30.9933 946.512 31.03 946.292 31.03C946.109 31.03 945.999 30.9933 945.962 30.92C945.889 28.6833 945.467 27.07 944.697 26.08C943.927 25.09 942.736 24.595 941.122 24.595C940.022 24.595 939.307 24.8517 938.977 25.365C938.647 25.8417 938.482 26.8317 938.482 28.335V40.545C938.482 41.645 938.556 42.47 938.702 43.02C938.886 43.5333 939.216 43.8817 939.692 44.065C940.169 44.2483 940.921 44.34 941.947 44.34C942.057 44.34 942.112 44.45 942.112 44.67C942.112 44.89 942.057 45 941.947 45C941.031 45 940.316 44.9817 939.802 44.945L936.942 44.89L934.137 44.945C933.587 44.9817 932.817 45 931.827 45ZM962.721 32.515C967.561 32.515 969.981 34.4217 969.981 38.235C969.981 40.2517 969.266 41.9017 967.836 43.185C966.406 44.4683 964.61 45.11 962.446 45.11C961.896 45.11 960.851 45.0733 959.311 45C957.551 44.9267 956.305 44.89 955.571 44.89L952.656 44.945C952.143 44.9817 951.41 45 950.456 45C950.346 45 950.291 44.89 950.291 44.67C950.291 44.45 950.346 44.34 950.456 44.34C951.483 44.34 952.235 44.2483 952.711 44.065C953.225 43.8817 953.555 43.5333 953.701 43.02C953.885 42.47 953.976 41.645 953.976 40.545V28.225C953.976 27.125 953.885 26.3183 953.701 25.805C953.555 25.255 953.243 24.8883 952.766 24.705C952.29 24.5217 951.538 24.43 950.511 24.43C950.401 24.43 950.346 24.32 950.346 24.1C950.346 23.88 950.401 23.77 950.511 23.77C951.428 23.77 952.143 23.7883 952.656 23.825L955.571 23.88L958.761 23.825C959.348 23.7883 960.155 23.77 961.181 23.77C961.291 23.77 961.346 23.88 961.346 24.1C961.346 24.32 961.291 24.43 961.181 24.43C959.971 24.43 959.073 24.54 958.486 24.76C957.936 24.98 957.551 25.365 957.331 25.915C957.148 26.4283 957.056 27.235 957.056 28.335V33.34C958.67 32.79 960.558 32.515 962.721 32.515ZM981.861 44.34C981.935 44.34 981.971 44.45 981.971 44.67C981.971 44.89 981.935 45 981.861 45C980.945 45 980.211 44.9817 979.661 44.945L976.911 44.89L973.941 44.945C973.428 44.9817 972.713 45 971.796 45C971.686 45 971.631 44.89 971.631 44.67C971.631 44.45 971.686 44.34 971.796 44.34C972.823 44.34 973.575 44.2483 974.051 44.065C974.528 43.8817 974.84 43.5333 974.986 43.02C975.17 42.47 975.261 41.645 975.261 40.545V28.225C975.261 27.125 975.17 26.3183 974.986 25.805C974.84 25.255 974.528 24.8883 974.051 24.705C973.575 24.5217 972.841 24.43 971.851 24.43C971.741 24.43 971.686 24.32 971.686 24.1C971.686 23.88 971.741 23.77 971.851 23.77C972.731 23.77 973.428 23.7883 973.941 23.825L976.911 23.88L979.716 23.825C980.266 23.7883 980.981 23.77 981.861 23.77C981.935 23.77 981.971 23.88 981.971 24.1C981.971 24.32 981.935 24.43 981.861 24.43C980.835 24.43 980.083 24.54 979.606 24.76C979.13 24.98 978.8 25.365 978.616 25.915C978.47 26.4283 978.396 27.235 978.396 28.335V40.545C978.396 41.645 978.47 42.47 978.616 43.02C978.8 43.5333 979.13 43.8817 979.606 44.065C980.083 44.2483 980.835 44.34 981.861 44.34ZM961.401 44.285C964.811 44.285 966.516 42.69 966.516 39.5C966.516 37.63 966.04 36.1633 965.086 35.1C964.17 34.0367 962.74 33.505 960.796 33.505C959.476 33.505 958.23 33.7067 957.056 34.11V40.545C957.056 41.9383 957.35 42.91 957.936 43.46C958.523 44.01 959.678 44.285 961.401 44.285Z" fill="#2F2F2F"/>
</svg>
