<svg width="996" height="76" viewBox="0 0 996 76" fill="none" xmlns="http://www.w3.org/2000/svg">
<rect width="960" height="1" transform="matrix(1 0 0 -1 2 76)" fill="#693030"/>
<path d="M10.56 40.325C10.56 41.4983 10.7067 42.36 11 42.91C11.33 43.4233 11.935 43.79 12.815 44.01C13.7317 44.23 15.1617 44.34 17.105 44.34C17.215 44.34 17.27 44.45 17.27 44.67C17.27 44.89 17.215 45 17.105 45C15.6017 45 14.4283 44.9817 13.585 44.945L8.8 44.89L5.115 44.945C4.41833 44.9817 3.48333 45 2.31 45C2.23667 45 2.2 44.89 2.2 44.67C2.2 44.45 2.23667 44.34 2.31 44.34C3.70333 44.34 4.71167 44.2483 5.335 44.065C5.995 43.8817 6.435 43.5333 6.655 43.02C6.875 42.47 6.985 41.645 6.985 40.545V15.08C6.985 13.98 6.875 13.1733 6.655 12.66C6.435 12.1467 5.995 11.7983 5.335 11.615C4.71167 11.395 3.70333 11.285 2.31 11.285C2.23667 11.285 2.2 11.175 2.2 10.955C2.2 10.735 2.23667 10.625 2.31 10.625L5.06 10.68C6.6 10.7533 7.82833 10.79 8.745 10.79C9.66167 10.79 10.6883 10.735 11.825 10.625C12.265 10.625 12.9617 10.6067 13.915 10.57C14.8683 10.4967 15.6933 10.46 16.39 10.46C19.7633 10.46 22.4583 11.2117 24.475 12.715C26.5283 14.2183 27.555 16.51 27.555 19.59C27.555 22.01 26.95 24.045 25.74 25.695C24.5667 27.345 23.045 28.5733 21.175 29.38C19.3417 30.1867 17.435 30.59 15.455 30.59C14.355 30.59 13.4567 30.4983 12.76 30.315C12.65 30.315 12.595 30.2233 12.595 30.04C12.595 29.93 12.6133 29.82 12.65 29.71C12.7233 29.6 12.7967 29.5633 12.87 29.6C13.4567 29.7467 14.1167 29.82 14.85 29.82C17.27 29.82 19.305 29.0317 20.955 27.455C22.6417 25.8783 23.485 23.605 23.485 20.635C23.485 17.7383 22.6967 15.465 21.12 13.815C19.5433 12.1283 17.5267 11.285 15.07 11.285C13.75 11.285 12.7967 11.3583 12.21 11.505C11.6233 11.6517 11.2017 12 10.945 12.55C10.6883 13.0633 10.56 13.9433 10.56 15.19V40.325ZM48.3192 41.92C48.4292 41.92 48.5209 41.9933 48.5942 42.14C48.7042 42.25 48.7226 42.36 48.6492 42.47C46.2292 44.5967 43.5526 45.66 40.6192 45.66C38.4926 45.66 36.6776 45.165 35.1742 44.175C33.6709 43.185 32.5159 41.8833 31.7092 40.27C30.9392 38.6567 30.5542 36.9333 30.5542 35.1C30.5542 32.9367 31.0676 30.9567 32.0942 29.16C33.1209 27.3267 34.5142 25.8967 36.2742 24.87C38.0709 23.8067 40.0326 23.275 42.1592 23.275C44.2126 23.275 45.7892 23.825 46.8892 24.925C47.9892 26.025 48.5392 27.565 48.5392 29.545C48.5392 30.0583 48.4842 30.425 48.3742 30.645C48.3009 30.865 48.1542 30.975 47.9342 30.975L34.2942 31.03C34.2209 31.8367 34.1842 32.4967 34.1842 33.01C34.1842 36.2 34.9359 38.785 36.4392 40.765C37.9426 42.745 40.0509 43.735 42.7642 43.735C43.8642 43.735 44.7992 43.5883 45.5692 43.295C46.3759 43.0017 47.2742 42.5433 48.2642 41.92H48.3192ZM40.3442 24.375C38.7676 24.375 37.4659 24.9067 36.4392 25.97C35.4126 26.9967 34.7342 28.445 34.4042 30.315L44.8542 30.095C44.8542 28.225 44.4509 26.8133 43.6442 25.86C42.8376 24.87 41.7376 24.375 40.3442 24.375ZM81.2754 44.34C81.3487 44.34 81.3854 44.45 81.3854 44.67C81.3854 44.89 81.3487 45 81.2754 45C80.2854 45 79.5154 44.9817 78.9654 44.945L76.2704 44.89L73.6304 44.945C73.1904 44.9817 72.5854 45 71.8154 45C71.7054 45 71.6504 44.89 71.6504 44.67C71.6504 44.45 71.7054 44.34 71.8154 44.34C72.8787 44.34 73.6304 44.1933 74.0704 43.9C74.5104 43.57 74.7304 42.9467 74.7304 42.03C74.7304 41.81 74.6937 41.3333 74.6204 40.6L73.0804 29.435L66.3154 45C66.2787 45.1467 66.1321 45.22 65.8754 45.22C65.6921 45.22 65.5454 45.1467 65.4354 45L57.5154 29.6L56.4154 39.28C56.3787 39.5733 56.3604 39.9767 56.3604 40.49C56.3604 41.8467 56.6537 42.8367 57.2404 43.46C57.8271 44.0467 58.7254 44.34 59.9354 44.34C60.0454 44.34 60.1004 44.45 60.1004 44.67C60.1004 44.89 60.0454 45 59.9354 45C59.1287 45 58.5237 44.9817 58.1204 44.945L55.8654 44.89L53.5554 44.945C53.1154 44.9817 52.4921 45 51.6854 45C51.5754 45 51.5204 44.89 51.5204 44.67C51.5204 44.45 51.5754 44.34 51.6854 44.34C52.9321 44.34 53.8121 43.9733 54.3254 43.24C54.8387 42.5067 55.1687 41.1867 55.3154 39.28L56.6904 23.495C56.6904 23.385 56.7454 23.3117 56.8554 23.275C57.0021 23.2017 57.1487 23.165 57.2954 23.165C57.5521 23.165 57.7354 23.22 57.8454 23.33L66.9204 40.82L74.5654 23.385C74.6021 23.2383 74.7671 23.165 75.0604 23.165C75.2437 23.165 75.3904 23.2017 75.5004 23.275C75.6471 23.3483 75.7387 23.44 75.7754 23.55L77.7004 40.545C77.8471 41.755 77.9937 42.5983 78.1404 43.075C78.3237 43.5517 78.6354 43.8817 79.0754 44.065C79.5154 44.2483 80.2487 44.34 81.2754 44.34ZM94.6142 45.715C92.4875 45.715 90.5992 45.2017 88.9492 44.175C87.3358 43.1117 86.0892 41.7 85.2092 39.94C84.3292 38.1433 83.8892 36.2 83.8892 34.11C83.8892 31.7267 84.4575 29.71 85.5942 28.06C86.7675 26.3733 88.2525 25.1267 90.0492 24.32C91.8825 23.4767 93.7342 23.055 95.6042 23.055C97.7675 23.055 99.6558 23.5867 101.269 24.65C102.883 25.7133 104.111 27.125 104.954 28.885C105.834 30.6083 106.274 32.4417 106.274 34.385C106.274 36.6583 105.743 38.6567 104.679 40.38C103.616 42.0667 102.186 43.3867 100.389 44.34C98.6292 45.2567 96.7042 45.715 94.6142 45.715ZM96.2092 44.67C98.2258 44.67 99.7842 43.955 100.884 42.525C101.984 41.095 102.534 38.895 102.534 35.925C102.534 33.6517 102.149 31.6167 101.379 29.82C100.646 28.0233 99.6192 26.63 98.2992 25.64C96.9792 24.6133 95.4758 24.1 93.7892 24.1C91.8092 24.1 90.2692 24.815 89.1692 26.245C88.1058 27.675 87.5742 29.7283 87.5742 32.405C87.5742 34.6417 87.9408 36.695 88.6742 38.565C89.4075 40.435 90.4342 41.92 91.7542 43.02C93.0742 44.12 94.5592 44.67 96.2092 44.67ZM134.903 44.34C134.976 44.34 135.013 44.45 135.013 44.67C135.013 44.89 134.976 45 134.903 45C133.949 45 133.198 44.9817 132.648 44.945L129.898 44.89L126.928 44.945C126.414 44.9817 125.699 45 124.783 45C124.673 45 124.618 44.89 124.618 44.67C124.618 44.45 124.673 44.34 124.783 44.34C125.809 44.34 126.561 44.2483 127.038 44.065C127.514 43.8817 127.844 43.5333 128.028 43.02C128.211 42.47 128.303 41.645 128.303 40.545V34.935H116.588V40.545C116.588 41.645 116.661 42.47 116.808 43.02C116.991 43.5333 117.321 43.8817 117.798 44.065C118.311 44.2483 119.081 44.34 120.108 44.34C120.181 44.34 120.218 44.45 120.218 44.67C120.218 44.89 120.181 45 120.108 45C119.154 45 118.403 44.9817 117.853 44.945L115.103 44.89L112.188 44.945C111.674 44.9817 110.941 45 109.988 45C109.878 45 109.823 44.89 109.823 44.67C109.823 44.45 109.878 44.34 109.988 44.34C111.014 44.34 111.766 44.2483 112.243 44.065C112.756 43.8817 113.086 43.5333 113.233 43.02C113.416 42.47 113.508 41.645 113.508 40.545V28.225C113.508 27.125 113.416 26.3183 113.233 25.805C113.086 25.255 112.774 24.8883 112.298 24.705C111.821 24.5217 111.069 24.43 110.043 24.43C109.933 24.43 109.878 24.32 109.878 24.1C109.878 23.88 109.933 23.77 110.043 23.77C110.959 23.77 111.674 23.7883 112.188 23.825L115.103 23.88L117.908 23.825C118.458 23.7883 119.191 23.77 120.108 23.77C120.181 23.77 120.218 23.88 120.218 24.1C120.218 24.32 120.181 24.43 120.108 24.43C119.081 24.43 118.311 24.54 117.798 24.76C117.321 24.98 116.991 25.365 116.808 25.915C116.661 26.4283 116.588 27.235 116.588 28.335V33.835H128.303V28.225C128.303 27.125 128.211 26.3183 128.028 25.805C127.881 25.255 127.569 24.8883 127.093 24.705C126.616 24.5217 125.864 24.43 124.838 24.43C124.728 24.43 124.673 24.32 124.673 24.1C124.673 23.88 124.728 23.77 124.838 23.77C125.754 23.77 126.469 23.7883 126.983 23.825L129.898 23.88L132.703 23.825C133.253 23.7883 133.986 23.77 134.903 23.77C134.976 23.77 135.013 23.88 135.013 24.1C135.013 24.32 134.976 24.43 134.903 24.43C133.876 24.43 133.106 24.54 132.593 24.76C132.116 24.98 131.786 25.365 131.603 25.915C131.456 26.4283 131.383 27.235 131.383 28.335V40.545C131.383 41.645 131.456 42.47 131.603 43.02C131.786 43.5333 132.116 43.8817 132.593 44.065C133.106 44.2483 133.876 44.34 134.903 44.34ZM143.297 45C143.224 45 143.187 44.89 143.187 44.67C143.187 44.45 143.224 44.34 143.297 44.34C144.324 44.34 145.075 44.2483 145.552 44.065C146.065 43.8817 146.395 43.5333 146.542 43.02C146.725 42.47 146.817 41.645 146.817 40.545V28.335C146.817 26.8317 146.652 25.8417 146.322 25.365C145.992 24.8517 145.277 24.595 144.177 24.595C142.527 24.595 141.317 25.09 140.547 26.08C139.777 27.07 139.355 28.6833 139.282 30.92C139.282 30.9933 139.172 31.03 138.952 31.03C138.769 31.03 138.677 30.9933 138.677 30.92L138.567 27.62C138.53 27.2167 138.494 26.74 138.457 26.19C138.42 25.6033 138.402 24.9433 138.402 24.21C138.402 23.99 138.42 23.8617 138.457 23.825C138.494 23.7517 138.622 23.715 138.842 23.715C139.612 23.715 140.29 23.7333 140.877 23.77L148.247 23.825L155.782 23.77C156.405 23.7333 157.102 23.715 157.872 23.715C158.129 23.715 158.275 23.7517 158.312 23.825C158.349 23.8617 158.367 23.99 158.367 24.21C158.184 27.8767 158.092 30.1133 158.092 30.92C158.092 30.9933 157.982 31.03 157.762 31.03C157.579 31.03 157.469 30.9933 157.432 30.92C157.359 28.6833 156.937 27.07 156.167 26.08C155.397 25.09 154.205 24.595 152.592 24.595C151.492 24.595 150.777 24.8517 150.447 25.365C150.117 25.8417 149.952 26.8317 149.952 28.335V40.545C149.952 41.645 150.025 42.47 150.172 43.02C150.355 43.5333 150.685 43.8817 151.162 44.065C151.639 44.2483 152.39 44.34 153.417 44.34C153.527 44.34 153.582 44.45 153.582 44.67C153.582 44.89 153.527 45 153.417 45C152.5 45 151.785 44.9817 151.272 44.945L148.412 44.89L145.607 44.945C145.057 44.9817 144.287 45 143.297 45ZM188.952 33.285C191.005 33.4683 192.527 33.9817 193.517 34.825C194.507 35.6317 195.002 36.7867 195.002 38.29C195.002 40.27 194.232 41.9017 192.692 43.185C191.152 44.4683 189.19 45.11 186.807 45.11C186.257 45.11 185.212 45.0733 183.672 45C181.912 44.9267 180.665 44.89 179.932 44.89L177.017 44.945C176.503 44.9817 175.77 45 174.817 45C174.707 45 174.652 44.89 174.652 44.67C174.652 44.45 174.707 44.34 174.817 44.34C175.843 44.34 176.595 44.2483 177.072 44.065C177.585 43.8817 177.915 43.5333 178.062 43.02C178.245 42.47 178.337 41.645 178.337 40.545V28.225C178.337 27.125 178.245 26.3183 178.062 25.805C177.915 25.255 177.603 24.8883 177.127 24.705C176.65 24.5217 175.898 24.43 174.872 24.43C174.762 24.43 174.707 24.32 174.707 24.1C174.707 23.88 174.762 23.77 174.872 23.77L179.932 23.825L182.792 23.77C184.258 23.6967 185.34 23.66 186.037 23.66C188.2 23.66 189.85 24.0083 190.987 24.705C192.123 25.4017 192.692 26.4467 192.692 27.84C192.692 28.7933 192.38 29.71 191.757 30.59C191.17 31.47 190.235 32.3683 188.952 33.285ZM184.607 24.43C183.727 24.43 183.067 24.5217 182.627 24.705C182.187 24.8883 181.875 25.255 181.692 25.805C181.508 26.355 181.417 27.1983 181.417 28.335V33.23H187.137H187.742C188.732 32.24 189.227 30.865 189.227 29.105C189.227 27.4917 188.842 26.3183 188.072 25.585C187.302 24.815 186.147 24.43 184.607 24.43ZM185.817 44.23C189.557 44.23 191.427 42.6717 191.427 39.555C191.427 37.8683 190.913 36.5483 189.887 35.595C188.897 34.605 187.338 34.11 185.212 34.11H181.417V40.545C181.417 41.9017 181.71 42.855 182.297 43.405C182.883 43.955 184.057 44.23 185.817 44.23ZM219.998 42.03C220.145 42.03 220.236 42.1217 220.273 42.305C220.31 42.4517 220.255 42.5617 220.108 42.635L214.443 45.33C214.296 45.4033 214.15 45.44 214.003 45.44C213.526 45.44 213.105 45.1283 212.738 44.505C212.371 43.845 212.133 42.965 212.023 41.865L209.163 43.735C208.246 44.3217 207.44 44.7433 206.743 45C206.046 45.2567 205.313 45.385 204.543 45.385C203.186 45.385 202.123 45.0367 201.353 44.34C200.62 43.6067 200.253 42.69 200.253 41.59C200.253 40.49 200.693 39.5367 201.573 38.73C202.453 37.9233 203.901 37.1533 205.918 36.42L211.968 34.165V30.425C211.968 26.3183 210.813 24.265 208.503 24.265C207.256 24.265 206.303 24.6867 205.643 25.53C205.02 26.3367 204.598 27.2717 204.378 28.335C204.268 28.995 204.066 29.545 203.773 29.985C203.48 30.3883 202.985 30.59 202.288 30.59C201.701 30.59 201.243 30.425 200.913 30.095C200.62 29.765 200.473 29.38 200.473 28.94C200.473 28.06 201.041 27.18 202.178 26.3C203.315 25.42 204.671 24.6867 206.248 24.1C207.825 23.5133 209.236 23.22 210.483 23.22C211.986 23.22 213.123 23.6967 213.893 24.65C214.663 25.6033 215.048 26.9783 215.048 28.775V39.06C215.048 40.3433 215.213 41.2783 215.543 41.865C215.873 42.4517 216.423 42.745 217.193 42.745C217.89 42.745 218.788 42.5067 219.888 42.03H219.998ZM211.968 41.095V40.82V34.935L206.853 36.915C205.826 37.3183 205.075 37.795 204.598 38.345C204.158 38.8583 203.938 39.4817 203.938 40.215C203.938 41.095 204.213 41.8467 204.763 42.47C205.35 43.0567 206.101 43.35 207.018 43.35C207.751 43.35 208.631 43.0567 209.658 42.47L211.968 41.095ZM246.89 44.34C246.963 44.34 247 44.45 247 44.67C247 44.89 246.963 45 246.89 45C245.937 45 245.185 44.9817 244.635 44.945L241.885 44.89L238.915 44.945C238.402 44.9817 237.687 45 236.77 45C236.66 45 236.605 44.89 236.605 44.67C236.605 44.45 236.66 44.34 236.77 44.34C237.797 44.34 238.548 44.2483 239.025 44.065C239.502 43.8817 239.832 43.5333 240.015 43.02C240.198 42.47 240.29 41.645 240.29 40.545V34.935H228.575V40.545C228.575 41.645 228.648 42.47 228.795 43.02C228.978 43.5333 229.308 43.8817 229.785 44.065C230.298 44.2483 231.068 44.34 232.095 44.34C232.168 44.34 232.205 44.45 232.205 44.67C232.205 44.89 232.168 45 232.095 45C231.142 45 230.39 44.9817 229.84 44.945L227.09 44.89L224.175 44.945C223.662 44.9817 222.928 45 221.975 45C221.865 45 221.81 44.89 221.81 44.67C221.81 44.45 221.865 44.34 221.975 44.34C223.002 44.34 223.753 44.2483 224.23 44.065C224.743 43.8817 225.073 43.5333 225.22 43.02C225.403 42.47 225.495 41.645 225.495 40.545V28.225C225.495 27.125 225.403 26.3183 225.22 25.805C225.073 25.255 224.762 24.8883 224.285 24.705C223.808 24.5217 223.057 24.43 222.03 24.43C221.92 24.43 221.865 24.32 221.865 24.1C221.865 23.88 221.92 23.77 222.03 23.77C222.947 23.77 223.662 23.7883 224.175 23.825L227.09 23.88L229.895 23.825C230.445 23.7883 231.178 23.77 232.095 23.77C232.168 23.77 232.205 23.88 232.205 24.1C232.205 24.32 232.168 24.43 232.095 24.43C231.068 24.43 230.298 24.54 229.785 24.76C229.308 24.98 228.978 25.365 228.795 25.915C228.648 26.4283 228.575 27.235 228.575 28.335V33.835H240.29V28.225C240.29 27.125 240.198 26.3183 240.015 25.805C239.868 25.255 239.557 24.8883 239.08 24.705C238.603 24.5217 237.852 24.43 236.825 24.43C236.715 24.43 236.66 24.32 236.66 24.1C236.66 23.88 236.715 23.77 236.825 23.77C237.742 23.77 238.457 23.7883 238.97 23.825L241.885 23.88L244.69 23.825C245.24 23.7883 245.973 23.77 246.89 23.77C246.963 23.77 247 23.88 247 24.1C247 24.32 246.963 24.43 246.89 24.43C245.863 24.43 245.093 24.54 244.58 24.76C244.103 24.98 243.773 25.365 243.59 25.915C243.443 26.4283 243.37 27.235 243.37 28.335V40.545C243.37 41.645 243.443 42.47 243.59 43.02C243.773 43.5333 244.103 43.8817 244.58 44.065C245.093 44.2483 245.863 44.34 246.89 44.34ZM275.249 44.34C275.323 44.34 275.359 44.45 275.359 44.67C275.359 44.89 275.323 45 275.249 45C274.296 45 273.544 44.9817 272.994 44.945L270.244 44.89L267.274 44.945C266.761 44.9817 266.046 45 265.129 45C265.019 45 264.964 44.89 264.964 44.67C264.964 44.45 265.019 44.34 265.129 44.34C266.156 44.34 266.908 44.2483 267.384 44.065C267.861 43.8817 268.191 43.5333 268.374 43.02C268.558 42.47 268.649 41.645 268.649 40.545V34.935H256.934V40.545C256.934 41.645 257.008 42.47 257.154 43.02C257.338 43.5333 257.668 43.8817 258.144 44.065C258.658 44.2483 259.428 44.34 260.454 44.34C260.528 44.34 260.564 44.45 260.564 44.67C260.564 44.89 260.528 45 260.454 45C259.501 45 258.749 44.9817 258.199 44.945L255.449 44.89L252.534 44.945C252.021 44.9817 251.288 45 250.334 45C250.224 45 250.169 44.89 250.169 44.67C250.169 44.45 250.224 44.34 250.334 44.34C251.361 44.34 252.113 44.2483 252.589 44.065C253.103 43.8817 253.433 43.5333 253.579 43.02C253.763 42.47 253.854 41.645 253.854 40.545V28.225C253.854 27.125 253.763 26.3183 253.579 25.805C253.433 25.255 253.121 24.8883 252.644 24.705C252.168 24.5217 251.416 24.43 250.389 24.43C250.279 24.43 250.224 24.32 250.224 24.1C250.224 23.88 250.279 23.77 250.389 23.77C251.306 23.77 252.021 23.7883 252.534 23.825L255.449 23.88L258.254 23.825C258.804 23.7883 259.538 23.77 260.454 23.77C260.528 23.77 260.564 23.88 260.564 24.1C260.564 24.32 260.528 24.43 260.454 24.43C259.428 24.43 258.658 24.54 258.144 24.76C257.668 24.98 257.338 25.365 257.154 25.915C257.008 26.4283 256.934 27.235 256.934 28.335V33.835H268.649V28.225C268.649 27.125 268.558 26.3183 268.374 25.805C268.228 25.255 267.916 24.8883 267.439 24.705C266.963 24.5217 266.211 24.43 265.184 24.43C265.074 24.43 265.019 24.32 265.019 24.1C265.019 23.88 265.074 23.77 265.184 23.77C266.101 23.77 266.816 23.7883 267.329 23.825L270.244 23.88L273.049 23.825C273.599 23.7883 274.333 23.77 275.249 23.77C275.323 23.77 275.359 23.88 275.359 24.1C275.359 24.32 275.323 24.43 275.249 24.43C274.223 24.43 273.453 24.54 272.939 24.76C272.463 24.98 272.133 25.365 271.949 25.915C271.803 26.4283 271.729 27.235 271.729 28.335V40.545C271.729 41.645 271.803 42.47 271.949 43.02C272.133 43.5333 272.463 43.8817 272.939 44.065C273.453 44.2483 274.223 44.34 275.249 44.34ZM290.959 32.515C295.799 32.515 298.219 34.4217 298.219 38.235C298.219 40.2517 297.504 41.9017 296.074 43.185C294.644 44.4683 292.847 45.11 290.684 45.11C290.134 45.11 289.089 45.0733 287.549 45C285.789 44.9267 284.542 44.89 283.809 44.89L280.894 44.945C280.38 44.9817 279.647 45 278.694 45C278.584 45 278.529 44.89 278.529 44.67C278.529 44.45 278.584 44.34 278.694 44.34C279.72 44.34 280.472 44.2483 280.949 44.065C281.462 43.8817 281.792 43.5333 281.939 43.02C282.122 42.47 282.214 41.645 282.214 40.545V28.225C282.214 27.125 282.122 26.3183 281.939 25.805C281.792 25.255 281.48 24.8883 281.004 24.705C280.527 24.5217 279.775 24.43 278.749 24.43C278.639 24.43 278.584 24.32 278.584 24.1C278.584 23.88 278.639 23.77 278.749 23.77C279.665 23.77 280.38 23.7883 280.894 23.825L283.809 23.88L286.999 23.825C287.585 23.7883 288.392 23.77 289.419 23.77C289.529 23.77 289.584 23.88 289.584 24.1C289.584 24.32 289.529 24.43 289.419 24.43C288.209 24.43 287.31 24.54 286.724 24.76C286.174 24.98 285.789 25.365 285.569 25.915C285.385 26.4283 285.294 27.235 285.294 28.335V33.34C286.907 32.79 288.795 32.515 290.959 32.515ZM310.099 44.34C310.172 44.34 310.209 44.45 310.209 44.67C310.209 44.89 310.172 45 310.099 45C309.182 45 308.449 44.9817 307.899 44.945L305.149 44.89L302.179 44.945C301.665 44.9817 300.95 45 300.034 45C299.924 45 299.869 44.89 299.869 44.67C299.869 44.45 299.924 44.34 300.034 44.34C301.06 44.34 301.812 44.2483 302.289 44.065C302.765 43.8817 303.077 43.5333 303.224 43.02C303.407 42.47 303.499 41.645 303.499 40.545V28.225C303.499 27.125 303.407 26.3183 303.224 25.805C303.077 25.255 302.765 24.8883 302.289 24.705C301.812 24.5217 301.079 24.43 300.089 24.43C299.979 24.43 299.924 24.32 299.924 24.1C299.924 23.88 299.979 23.77 300.089 23.77C300.969 23.77 301.665 23.7883 302.179 23.825L305.149 23.88L307.954 23.825C308.504 23.7883 309.219 23.77 310.099 23.77C310.172 23.77 310.209 23.88 310.209 24.1C310.209 24.32 310.172 24.43 310.099 24.43C309.072 24.43 308.32 24.54 307.844 24.76C307.367 24.98 307.037 25.365 306.854 25.915C306.707 26.4283 306.634 27.235 306.634 28.335V40.545C306.634 41.645 306.707 42.47 306.854 43.02C307.037 43.5333 307.367 43.8817 307.844 44.065C308.32 44.2483 309.072 44.34 310.099 44.34ZM289.639 44.285C293.049 44.285 294.754 42.69 294.754 39.5C294.754 37.63 294.277 36.1633 293.324 35.1C292.407 34.0367 290.977 33.505 289.034 33.505C287.714 33.505 286.467 33.7067 285.294 34.11V40.545C285.294 41.9383 285.587 42.91 286.174 43.46C286.76 44.01 287.915 44.285 289.639 44.285ZM335.331 44.34C335.404 44.34 335.441 44.45 335.441 44.67C335.441 44.89 335.404 45 335.331 45L333.571 44.945C333.167 44.9083 332.581 44.89 331.811 44.89L328.291 44.945C327.741 44.9817 327.007 45 326.091 45C325.981 45 325.926 44.89 325.926 44.67C325.926 44.45 325.981 44.34 326.091 44.34C326.751 44.34 327.209 44.3033 327.466 44.23C327.759 44.12 327.906 43.9367 327.906 43.68C327.906 43.35 327.686 42.855 327.246 42.195L323.066 35.87L319.766 40.6C319.032 41.7 318.666 42.5067 318.666 43.02C318.666 43.46 318.904 43.79 319.381 44.01C319.894 44.23 320.701 44.34 321.801 44.34C321.911 44.34 321.966 44.45 321.966 44.67C321.966 44.89 321.911 45 321.801 45C320.811 45 320.077 44.9817 319.601 44.945L316.301 44.89L314.321 44.945C313.954 44.9817 313.367 45 312.561 45C312.487 45 312.451 44.89 312.451 44.67C312.451 44.45 312.487 44.34 312.561 44.34C313.514 44.34 314.541 43.9917 315.641 43.295C316.777 42.5983 317.822 41.59 318.776 40.27L322.516 35.045L318.061 28.335C317.181 26.9783 316.264 25.9883 315.311 25.365C314.357 24.7417 313.496 24.43 312.726 24.43C312.652 24.43 312.616 24.32 312.616 24.1C312.616 23.88 312.652 23.77 312.726 23.77C313.496 23.77 314.064 23.7883 314.431 23.825L316.136 23.88L319.656 23.825C320.169 23.7883 320.884 23.77 321.801 23.77C321.874 23.77 321.911 23.88 321.911 24.1C321.911 24.32 321.874 24.43 321.801 24.43C321.177 24.43 320.719 24.485 320.426 24.595C320.132 24.6683 319.986 24.8333 319.986 25.09C319.986 25.3467 320.224 25.8417 320.701 26.575L324.496 32.295L327.301 28.17C328.071 27.0333 328.456 26.2083 328.456 25.695C328.456 25.255 328.199 24.9433 327.686 24.76C327.209 24.54 326.402 24.43 325.266 24.43C325.192 24.43 325.156 24.32 325.156 24.1C325.156 23.88 325.192 23.77 325.266 23.77C326.256 23.77 327.007 23.7883 327.521 23.825L330.821 23.88L332.801 23.825C333.167 23.7883 333.754 23.77 334.561 23.77C334.634 23.77 334.671 23.88 334.671 24.1C334.671 24.32 334.634 24.43 334.561 24.43C333.571 24.43 332.526 24.7783 331.426 25.475C330.362 26.135 329.336 27.1433 328.346 28.5L324.991 33.065L329.886 40.435C330.802 41.8283 331.737 42.8367 332.691 43.46C333.681 44.0467 334.561 44.34 335.331 44.34ZM374.206 44.34C374.28 44.34 374.316 44.45 374.316 44.67C374.316 44.89 374.28 45 374.206 45H368.101C367.845 45 367.661 44.945 367.551 44.835C367.478 44.6883 367.185 44.175 366.671 43.295C366.195 42.415 365.516 41.2233 364.636 39.72C363.72 38.2167 362.95 37.0983 362.326 36.365C361.74 35.6317 361.116 35.1367 360.456 34.88C359.833 34.5867 359.026 34.44 358.036 34.44H357.156V40.545C357.156 41.645 357.23 42.47 357.376 43.02C357.56 43.5333 357.89 43.8817 358.366 44.065C358.843 44.2483 359.595 44.34 360.621 44.34C360.695 44.34 360.731 44.45 360.731 44.67C360.731 44.89 360.695 45 360.621 45C359.705 45 358.971 44.9817 358.421 44.945L355.671 44.89L352.701 44.945C352.188 44.9817 351.473 45 350.556 45C350.446 45 350.391 44.89 350.391 44.67C350.391 44.45 350.446 44.34 350.556 44.34C351.583 44.34 352.335 44.2483 352.811 44.065C353.288 43.8817 353.6 43.5333 353.746 43.02C353.93 42.47 354.021 41.645 354.021 40.545V28.225C354.021 27.125 353.93 26.3183 353.746 25.805C353.6 25.255 353.288 24.8883 352.811 24.705C352.335 24.5217 351.601 24.43 350.611 24.43C350.501 24.43 350.446 24.32 350.446 24.1C350.446 23.88 350.501 23.77 350.611 23.77C351.491 23.77 352.188 23.7883 352.701 23.825L355.671 23.88L358.861 23.825C359.448 23.7883 360.236 23.77 361.226 23.77C361.336 23.77 361.391 23.88 361.391 24.1C361.391 24.32 361.336 24.43 361.226 24.43C360.053 24.43 359.173 24.54 358.586 24.76C358.036 24.9433 357.651 25.31 357.431 25.86C357.248 26.41 357.156 27.235 357.156 28.335V33.56C357.596 33.56 358.146 33.5233 358.806 33.45L360.566 33.395C361.483 33.395 362.4 32.515 363.316 30.755C363.426 30.535 363.518 30.3517 363.591 30.205C363.701 30.0217 363.793 29.8567 363.866 29.71C365.113 27.29 366.103 25.6217 366.836 24.705C367.606 23.7517 368.578 23.275 369.751 23.275C370.558 23.275 371.181 23.4583 371.621 23.825C372.061 24.1917 372.281 24.65 372.281 25.2C372.281 25.7867 372.08 26.2817 371.676 26.685C371.273 27.0883 370.741 27.29 370.081 27.29C369.678 27.29 369.256 27.1617 368.816 26.905C368.376 26.6483 368.028 26.52 367.771 26.52C367.038 26.52 365.828 28.0233 364.141 31.03C363.555 32.13 362.986 32.955 362.436 33.505C363.5 33.6517 364.361 34.0733 365.021 34.77C365.718 35.43 366.653 36.7133 367.826 38.62L368.596 39.885C369.33 41.0583 369.916 41.9383 370.356 42.525C370.796 43.075 371.31 43.515 371.896 43.845C372.483 44.1383 373.253 44.3033 374.206 44.34ZM385.942 45.715C383.816 45.715 381.927 45.2017 380.277 44.175C378.664 43.1117 377.417 41.7 376.537 39.94C375.657 38.1433 375.217 36.2 375.217 34.11C375.217 31.7267 375.786 29.71 376.922 28.06C378.096 26.3733 379.581 25.1267 381.377 24.32C383.211 23.4767 385.062 23.055 386.932 23.055C389.096 23.055 390.984 23.5867 392.597 24.65C394.211 25.7133 395.439 27.125 396.282 28.885C397.162 30.6083 397.602 32.4417 397.602 34.385C397.602 36.6583 397.071 38.6567 396.007 40.38C394.944 42.0667 393.514 43.3867 391.717 44.34C389.957 45.2567 388.032 45.715 385.942 45.715ZM387.537 44.67C389.554 44.67 391.112 43.955 392.212 42.525C393.312 41.095 393.862 38.895 393.862 35.925C393.862 33.6517 393.477 31.6167 392.707 29.82C391.974 28.0233 390.947 26.63 389.627 25.64C388.307 24.6133 386.804 24.1 385.117 24.1C383.137 24.1 381.597 24.815 380.497 26.245C379.434 27.675 378.902 29.7283 378.902 32.405C378.902 34.6417 379.269 36.695 380.002 38.565C380.736 40.435 381.762 41.92 383.082 43.02C384.402 44.12 385.887 44.67 387.537 44.67ZM429.806 44.34C429.879 44.34 429.916 44.45 429.916 44.67C429.916 44.89 429.879 45 429.806 45C428.816 45 428.046 44.9817 427.496 44.945L424.801 44.89L422.161 44.945C421.721 44.9817 421.116 45 420.346 45C420.236 45 420.181 44.89 420.181 44.67C420.181 44.45 420.236 44.34 420.346 44.34C421.409 44.34 422.161 44.1933 422.601 43.9C423.041 43.57 423.261 42.9467 423.261 42.03C423.261 41.81 423.224 41.3333 423.151 40.6L421.611 29.435L414.846 45C414.809 45.1467 414.662 45.22 414.406 45.22C414.222 45.22 414.076 45.1467 413.966 45L406.046 29.6L404.946 39.28C404.909 39.5733 404.891 39.9767 404.891 40.49C404.891 41.8467 405.184 42.8367 405.771 43.46C406.357 44.0467 407.256 44.34 408.466 44.34C408.576 44.34 408.631 44.45 408.631 44.67C408.631 44.89 408.576 45 408.466 45C407.659 45 407.054 44.9817 406.651 44.945L404.396 44.89L402.086 44.945C401.646 44.9817 401.022 45 400.216 45C400.106 45 400.051 44.89 400.051 44.67C400.051 44.45 400.106 44.34 400.216 44.34C401.462 44.34 402.342 43.9733 402.856 43.24C403.369 42.5067 403.699 41.1867 403.846 39.28L405.221 23.495C405.221 23.385 405.276 23.3117 405.386 23.275C405.532 23.2017 405.679 23.165 405.826 23.165C406.082 23.165 406.266 23.22 406.376 23.33L415.451 40.82L423.096 23.385C423.132 23.2383 423.297 23.165 423.591 23.165C423.774 23.165 423.921 23.2017 424.031 23.275C424.177 23.3483 424.269 23.44 424.306 23.55L426.231 40.545C426.377 41.755 426.524 42.5983 426.671 43.075C426.854 43.5517 427.166 43.8817 427.606 44.065C428.046 44.2483 428.779 44.34 429.806 44.34ZM457.114 44.34C457.188 44.34 457.224 44.45 457.224 44.67C457.224 44.89 457.188 45 457.114 45C456.161 45 455.409 44.9817 454.859 44.945L452.109 44.89L449.139 44.945C448.626 44.9817 447.911 45 446.994 45C446.884 45 446.829 44.89 446.829 44.67C446.829 44.45 446.884 44.34 446.994 44.34C448.021 44.34 448.773 44.2483 449.249 44.065C449.726 43.8817 450.056 43.5333 450.239 43.02C450.423 42.47 450.514 41.645 450.514 40.545V34.935H438.799V40.545C438.799 41.645 438.873 42.47 439.019 43.02C439.203 43.5333 439.533 43.8817 440.009 44.065C440.523 44.2483 441.293 44.34 442.319 44.34C442.393 44.34 442.429 44.45 442.429 44.67C442.429 44.89 442.393 45 442.319 45C441.366 45 440.614 44.9817 440.064 44.945L437.314 44.89L434.399 44.945C433.886 44.9817 433.153 45 432.199 45C432.089 45 432.034 44.89 432.034 44.67C432.034 44.45 432.089 44.34 432.199 44.34C433.226 44.34 433.978 44.2483 434.454 44.065C434.968 43.8817 435.298 43.5333 435.444 43.02C435.628 42.47 435.719 41.645 435.719 40.545V28.225C435.719 27.125 435.628 26.3183 435.444 25.805C435.298 25.255 434.986 24.8883 434.509 24.705C434.033 24.5217 433.281 24.43 432.254 24.43C432.144 24.43 432.089 24.32 432.089 24.1C432.089 23.88 432.144 23.77 432.254 23.77C433.171 23.77 433.886 23.7883 434.399 23.825L437.314 23.88L440.119 23.825C440.669 23.7883 441.403 23.77 442.319 23.77C442.393 23.77 442.429 23.88 442.429 24.1C442.429 24.32 442.393 24.43 442.319 24.43C441.293 24.43 440.523 24.54 440.009 24.76C439.533 24.98 439.203 25.365 439.019 25.915C438.873 26.4283 438.799 27.235 438.799 28.335V33.835H450.514V28.225C450.514 27.125 450.423 26.3183 450.239 25.805C450.093 25.255 449.781 24.8883 449.304 24.705C448.828 24.5217 448.076 24.43 447.049 24.43C446.939 24.43 446.884 24.32 446.884 24.1C446.884 23.88 446.939 23.77 447.049 23.77C447.966 23.77 448.681 23.7883 449.194 23.825L452.109 23.88L454.914 23.825C455.464 23.7883 456.198 23.77 457.114 23.77C457.188 23.77 457.224 23.88 457.224 24.1C457.224 24.32 457.188 24.43 457.114 24.43C456.088 24.43 455.318 24.54 454.804 24.76C454.328 24.98 453.998 25.365 453.814 25.915C453.668 26.4283 453.594 27.235 453.594 28.335V40.545C453.594 41.645 453.668 42.47 453.814 43.02C453.998 43.5333 454.328 43.8817 454.804 44.065C455.318 44.2483 456.088 44.34 457.114 44.34ZM481.624 42.03C481.77 42.03 481.862 42.1217 481.899 42.305C481.935 42.4517 481.88 42.5617 481.734 42.635L476.069 45.33C475.922 45.4033 475.775 45.44 475.629 45.44C475.152 45.44 474.73 45.1283 474.364 44.505C473.997 43.845 473.759 42.965 473.649 41.865L470.789 43.735C469.872 44.3217 469.065 44.7433 468.369 45C467.672 45.2567 466.939 45.385 466.169 45.385C464.812 45.385 463.749 45.0367 462.979 44.34C462.245 43.6067 461.879 42.69 461.879 41.59C461.879 40.49 462.319 39.5367 463.199 38.73C464.079 37.9233 465.527 37.1533 467.544 36.42L473.594 34.165V30.425C473.594 26.3183 472.439 24.265 470.129 24.265C468.882 24.265 467.929 24.6867 467.269 25.53C466.645 26.3367 466.224 27.2717 466.004 28.335C465.894 28.995 465.692 29.545 465.399 29.985C465.105 30.3883 464.61 30.59 463.914 30.59C463.327 30.59 462.869 30.425 462.539 30.095C462.245 29.765 462.099 29.38 462.099 28.94C462.099 28.06 462.667 27.18 463.804 26.3C464.94 25.42 466.297 24.6867 467.874 24.1C469.45 23.5133 470.862 23.22 472.109 23.22C473.612 23.22 474.749 23.6967 475.519 24.65C476.289 25.6033 476.674 26.9783 476.674 28.775V39.06C476.674 40.3433 476.839 41.2783 477.169 41.865C477.499 42.4517 478.049 42.745 478.819 42.745C479.515 42.745 480.414 42.5067 481.514 42.03H481.624ZM473.594 41.095V40.82V34.935L468.479 36.915C467.452 37.3183 466.7 37.795 466.224 38.345C465.784 38.8583 465.564 39.4817 465.564 40.215C465.564 41.095 465.839 41.8467 466.389 42.47C466.975 43.0567 467.727 43.35 468.644 43.35C469.377 43.35 470.257 43.0567 471.284 42.47L473.594 41.095ZM488.551 45C488.477 45 488.441 44.89 488.441 44.67C488.441 44.45 488.477 44.34 488.551 44.34C489.577 44.34 490.329 44.2483 490.806 44.065C491.319 43.8817 491.649 43.5333 491.796 43.02C491.979 42.47 492.071 41.645 492.071 40.545V28.335C492.071 26.8317 491.906 25.8417 491.576 25.365C491.246 24.8517 490.531 24.595 489.431 24.595C487.781 24.595 486.571 25.09 485.801 26.08C485.031 27.07 484.609 28.6833 484.536 30.92C484.536 30.9933 484.426 31.03 484.206 31.03C484.022 31.03 483.931 30.9933 483.931 30.92L483.821 27.62C483.784 27.2167 483.747 26.74 483.711 26.19C483.674 25.6033 483.656 24.9433 483.656 24.21C483.656 23.99 483.674 23.8617 483.711 23.825C483.747 23.7517 483.876 23.715 484.096 23.715C484.866 23.715 485.544 23.7333 486.131 23.77L493.501 23.825L501.036 23.77C501.659 23.7333 502.356 23.715 503.126 23.715C503.382 23.715 503.529 23.7517 503.566 23.825C503.602 23.8617 503.621 23.99 503.621 24.21C503.437 27.8767 503.346 30.1133 503.346 30.92C503.346 30.9933 503.236 31.03 503.016 31.03C502.832 31.03 502.722 30.9933 502.686 30.92C502.612 28.6833 502.191 27.07 501.421 26.08C500.651 25.09 499.459 24.595 497.846 24.595C496.746 24.595 496.031 24.8517 495.701 25.365C495.371 25.8417 495.206 26.8317 495.206 28.335V40.545C495.206 41.645 495.279 42.47 495.426 43.02C495.609 43.5333 495.939 43.8817 496.416 44.065C496.892 44.2483 497.644 44.34 498.671 44.34C498.781 44.34 498.836 44.45 498.836 44.67C498.836 44.89 498.781 45 498.671 45C497.754 45 497.039 44.9817 496.526 44.945L493.666 44.89L490.861 44.945C490.311 44.9817 489.541 45 488.551 45ZM534.206 33.285C536.259 33.4683 537.781 33.9817 538.771 34.825C539.761 35.6317 540.256 36.7867 540.256 38.29C540.256 40.27 539.486 41.9017 537.946 43.185C536.406 44.4683 534.444 45.11 532.061 45.11C531.511 45.11 530.466 45.0733 528.926 45C527.166 44.9267 525.919 44.89 525.186 44.89L522.271 44.945C521.757 44.9817 521.024 45 520.071 45C519.961 45 519.906 44.89 519.906 44.67C519.906 44.45 519.961 44.34 520.071 44.34C521.097 44.34 521.849 44.2483 522.326 44.065C522.839 43.8817 523.169 43.5333 523.316 43.02C523.499 42.47 523.591 41.645 523.591 40.545V28.225C523.591 27.125 523.499 26.3183 523.316 25.805C523.169 25.255 522.857 24.8883 522.381 24.705C521.904 24.5217 521.152 24.43 520.126 24.43C520.016 24.43 519.961 24.32 519.961 24.1C519.961 23.88 520.016 23.77 520.126 23.77L525.186 23.825L528.046 23.77C529.512 23.6967 530.594 23.66 531.291 23.66C533.454 23.66 535.104 24.0083 536.241 24.705C537.377 25.4017 537.946 26.4467 537.946 27.84C537.946 28.7933 537.634 29.71 537.011 30.59C536.424 31.47 535.489 32.3683 534.206 33.285ZM529.861 24.43C528.981 24.43 528.321 24.5217 527.881 24.705C527.441 24.8883 527.129 25.255 526.946 25.805C526.762 26.355 526.671 27.1983 526.671 28.335V33.23H532.391H532.996C533.986 32.24 534.481 30.865 534.481 29.105C534.481 27.4917 534.096 26.3183 533.326 25.585C532.556 24.815 531.401 24.43 529.861 24.43ZM531.071 44.23C534.811 44.23 536.681 42.6717 536.681 39.555C536.681 37.8683 536.167 36.5483 535.141 35.595C534.151 34.605 532.592 34.11 530.466 34.11H526.671V40.545C526.671 41.9017 526.964 42.855 527.551 43.405C528.137 43.955 529.311 44.23 531.071 44.23ZM578.142 10.02C579.902 10.02 581.681 10.185 583.477 10.515C585.274 10.845 586.704 11.3217 587.767 11.945C588.097 12.0917 588.299 12.2567 588.372 12.44C588.482 12.5867 588.556 12.8617 588.592 13.265L589.197 19.425C589.197 19.535 589.106 19.6083 588.922 19.645C588.739 19.645 588.629 19.59 588.592 19.48C587.786 16.6567 586.282 14.585 584.082 13.265C581.919 11.9083 579.224 11.23 575.997 11.23C573.211 11.23 570.772 11.8533 568.682 13.1C566.592 14.31 564.979 16.0333 563.842 18.27C562.706 20.5067 562.137 23.0917 562.137 26.025C562.137 29.435 562.834 32.5883 564.227 35.485C565.657 38.3817 567.564 40.6733 569.947 42.36C572.367 44.0467 574.971 44.89 577.757 44.89C580.397 44.89 582.689 44.175 584.632 42.745C586.576 41.2783 588.061 39.0417 589.087 36.035C589.087 35.925 589.161 35.87 589.307 35.87C589.417 35.87 589.509 35.8883 589.582 35.925C589.692 35.9617 589.747 36.0167 589.747 36.09L588.977 42.305C588.904 42.745 588.812 43.0383 588.702 43.185C588.629 43.295 588.427 43.4233 588.097 43.57C584.797 44.9633 581.314 45.66 577.647 45.66C573.247 45.66 569.562 44.78 566.592 43.02C563.659 41.2233 561.496 38.95 560.102 36.2C558.709 33.45 558.012 30.5533 558.012 27.51C558.012 24.1367 558.947 21.1117 560.817 18.435C562.687 15.7583 565.162 13.6867 568.242 12.22C571.322 10.7533 574.622 10.02 578.142 10.02ZM614.934 42.03C615.081 42.03 615.173 42.1217 615.209 42.305C615.246 42.4517 615.191 42.5617 615.044 42.635L609.379 45.33C609.233 45.4033 609.086 45.44 608.939 45.44C608.463 45.44 608.041 45.1283 607.674 44.505C607.308 43.845 607.069 42.965 606.959 41.865L604.099 43.735C603.183 44.3217 602.376 44.7433 601.679 45C600.983 45.2567 600.249 45.385 599.479 45.385C598.123 45.385 597.059 45.0367 596.289 44.34C595.556 43.6067 595.189 42.69 595.189 41.59C595.189 40.49 595.629 39.5367 596.509 38.73C597.389 37.9233 598.838 37.1533 600.854 36.42L606.904 34.165V30.425C606.904 26.3183 605.749 24.265 603.439 24.265C602.193 24.265 601.239 24.6867 600.579 25.53C599.956 26.3367 599.534 27.2717 599.314 28.335C599.204 28.995 599.003 29.545 598.709 29.985C598.416 30.3883 597.921 30.59 597.224 30.59C596.638 30.59 596.179 30.425 595.849 30.095C595.556 29.765 595.409 29.38 595.409 28.94C595.409 28.06 595.978 27.18 597.114 26.3C598.251 25.42 599.608 24.6867 601.184 24.1C602.761 23.5133 604.173 23.22 605.419 23.22C606.923 23.22 608.059 23.6967 608.829 24.65C609.599 25.6033 609.984 26.9783 609.984 28.775V39.06C609.984 40.3433 610.149 41.2783 610.479 41.865C610.809 42.4517 611.359 42.745 612.129 42.745C612.826 42.745 613.724 42.5067 614.824 42.03H614.934ZM606.904 41.095V40.82V34.935L601.789 36.915C600.763 37.3183 600.011 37.795 599.534 38.345C599.094 38.8583 598.874 39.4817 598.874 40.215C598.874 41.095 599.149 41.8467 599.699 42.47C600.286 43.0567 601.038 43.35 601.954 43.35C602.688 43.35 603.568 43.0567 604.594 42.47L606.904 41.095ZM641.826 44.34C641.9 44.34 641.936 44.45 641.936 44.67C641.936 44.89 641.9 45 641.826 45C640.873 45 640.121 44.9817 639.571 44.945L636.821 44.89L633.851 44.945C633.338 44.9817 632.623 45 631.706 45C631.596 45 631.541 44.89 631.541 44.67C631.541 44.45 631.596 44.34 631.706 44.34C632.733 44.34 633.485 44.2483 633.961 44.065C634.438 43.8817 634.768 43.5333 634.951 43.02C635.135 42.47 635.226 41.645 635.226 40.545V34.935H623.511V40.545C623.511 41.645 623.585 42.47 623.731 43.02C623.915 43.5333 624.245 43.8817 624.721 44.065C625.235 44.2483 626.005 44.34 627.031 44.34C627.105 44.34 627.141 44.45 627.141 44.67C627.141 44.89 627.105 45 627.031 45C626.078 45 625.326 44.9817 624.776 44.945L622.026 44.89L619.111 44.945C618.598 44.9817 617.865 45 616.911 45C616.801 45 616.746 44.89 616.746 44.67C616.746 44.45 616.801 44.34 616.911 44.34C617.938 44.34 618.69 44.2483 619.166 44.065C619.68 43.8817 620.01 43.5333 620.156 43.02C620.34 42.47 620.431 41.645 620.431 40.545V28.225C620.431 27.125 620.34 26.3183 620.156 25.805C620.01 25.255 619.698 24.8883 619.221 24.705C618.745 24.5217 617.993 24.43 616.966 24.43C616.856 24.43 616.801 24.32 616.801 24.1C616.801 23.88 616.856 23.77 616.966 23.77C617.883 23.77 618.598 23.7883 619.111 23.825L622.026 23.88L624.831 23.825C625.381 23.7883 626.115 23.77 627.031 23.77C627.105 23.77 627.141 23.88 627.141 24.1C627.141 24.32 627.105 24.43 627.031 24.43C626.005 24.43 625.235 24.54 624.721 24.76C624.245 24.98 623.915 25.365 623.731 25.915C623.585 26.4283 623.511 27.235 623.511 28.335V33.835H635.226V28.225C635.226 27.125 635.135 26.3183 634.951 25.805C634.805 25.255 634.493 24.8883 634.016 24.705C633.54 24.5217 632.788 24.43 631.761 24.43C631.651 24.43 631.596 24.32 631.596 24.1C631.596 23.88 631.651 23.77 631.761 23.77C632.678 23.77 633.393 23.7883 633.906 23.825L636.821 23.88L639.626 23.825C640.176 23.7883 640.91 23.77 641.826 23.77C641.9 23.77 641.936 23.88 641.936 24.1C641.936 24.32 641.9 24.43 641.826 24.43C640.8 24.43 640.03 24.54 639.516 24.76C639.04 24.98 638.71 25.365 638.526 25.915C638.38 26.4283 638.306 27.235 638.306 28.335V40.545C638.306 41.645 638.38 42.47 638.526 43.02C638.71 43.5333 639.04 43.8817 639.516 44.065C640.03 44.2483 640.8 44.34 641.826 44.34ZM668.811 44.34C668.884 44.34 668.921 44.45 668.921 44.67C668.921 44.89 668.884 45 668.811 45H662.706C662.449 45 662.266 44.945 662.156 44.835C662.082 44.6883 661.789 44.175 661.276 43.295C660.799 42.415 660.121 41.2233 659.241 39.72C658.324 38.2167 657.554 37.0983 656.931 36.365C656.344 35.6317 655.721 35.1367 655.061 34.88C654.437 34.5867 653.631 34.44 652.641 34.44H651.761V40.545C651.761 41.645 651.834 42.47 651.981 43.02C652.164 43.5333 652.494 43.8817 652.971 44.065C653.447 44.2483 654.199 44.34 655.226 44.34C655.299 44.34 655.336 44.45 655.336 44.67C655.336 44.89 655.299 45 655.226 45C654.309 45 653.576 44.9817 653.026 44.945L650.276 44.89L647.306 44.945C646.792 44.9817 646.077 45 645.161 45C645.051 45 644.996 44.89 644.996 44.67C644.996 44.45 645.051 44.34 645.161 44.34C646.187 44.34 646.939 44.2483 647.416 44.065C647.892 43.8817 648.204 43.5333 648.351 43.02C648.534 42.47 648.626 41.645 648.626 40.545V28.225C648.626 27.125 648.534 26.3183 648.351 25.805C648.204 25.255 647.892 24.8883 647.416 24.705C646.939 24.5217 646.206 24.43 645.216 24.43C645.106 24.43 645.051 24.32 645.051 24.1C645.051 23.88 645.106 23.77 645.216 23.77C646.096 23.77 646.792 23.7883 647.306 23.825L650.276 23.88L653.466 23.825C654.052 23.7883 654.841 23.77 655.831 23.77C655.941 23.77 655.996 23.88 655.996 24.1C655.996 24.32 655.941 24.43 655.831 24.43C654.657 24.43 653.777 24.54 653.191 24.76C652.641 24.9433 652.256 25.31 652.036 25.86C651.852 26.41 651.761 27.235 651.761 28.335V33.56C652.201 33.56 652.751 33.5233 653.411 33.45L655.171 33.395C656.087 33.395 657.004 32.515 657.921 30.755C658.031 30.535 658.122 30.3517 658.196 30.205C658.306 30.0217 658.397 29.8567 658.471 29.71C659.717 27.29 660.707 25.6217 661.441 24.705C662.211 23.7517 663.182 23.275 664.356 23.275C665.162 23.275 665.786 23.4583 666.226 23.825C666.666 24.1917 666.886 24.65 666.886 25.2C666.886 25.7867 666.684 26.2817 666.281 26.685C665.877 27.0883 665.346 27.29 664.686 27.29C664.282 27.29 663.861 27.1617 663.421 26.905C662.981 26.6483 662.632 26.52 662.376 26.52C661.642 26.52 660.432 28.0233 658.746 31.03C658.159 32.13 657.591 32.955 657.041 33.505C658.104 33.6517 658.966 34.0733 659.626 34.77C660.322 35.43 661.257 36.7133 662.431 38.62L663.201 39.885C663.934 41.0583 664.521 41.9383 664.961 42.525C665.401 43.075 665.914 43.515 666.501 43.845C667.087 44.1383 667.857 44.3033 668.811 44.34ZM675.519 45C675.445 45 675.409 44.89 675.409 44.67C675.409 44.45 675.445 44.34 675.519 44.34C676.545 44.34 677.297 44.2483 677.774 44.065C678.287 43.8817 678.617 43.5333 678.764 43.02C678.947 42.47 679.039 41.645 679.039 40.545V28.335C679.039 26.8317 678.874 25.8417 678.544 25.365C678.214 24.8517 677.499 24.595 676.399 24.595C674.749 24.595 673.539 25.09 672.769 26.08C671.999 27.07 671.577 28.6833 671.504 30.92C671.504 30.9933 671.394 31.03 671.174 31.03C670.99 31.03 670.899 30.9933 670.899 30.92L670.789 27.62C670.752 27.2167 670.715 26.74 670.679 26.19C670.642 25.6033 670.624 24.9433 670.624 24.21C670.624 23.99 670.642 23.8617 670.679 23.825C670.715 23.7517 670.844 23.715 671.064 23.715C671.834 23.715 672.512 23.7333 673.099 23.77L680.469 23.825L688.004 23.77C688.627 23.7333 689.324 23.715 690.094 23.715C690.35 23.715 690.497 23.7517 690.534 23.825C690.57 23.8617 690.589 23.99 690.589 24.21C690.405 27.8767 690.314 30.1133 690.314 30.92C690.314 30.9933 690.204 31.03 689.984 31.03C689.8 31.03 689.69 30.9933 689.654 30.92C689.58 28.6833 689.159 27.07 688.389 26.08C687.619 25.09 686.427 24.595 684.814 24.595C683.714 24.595 682.999 24.8517 682.669 25.365C682.339 25.8417 682.174 26.8317 682.174 28.335V40.545C682.174 41.645 682.247 42.47 682.394 43.02C682.577 43.5333 682.907 43.8817 683.384 44.065C683.86 44.2483 684.612 44.34 685.639 44.34C685.749 44.34 685.804 44.45 685.804 44.67C685.804 44.89 685.749 45 685.639 45C684.722 45 684.007 44.9817 683.494 44.945L680.634 44.89L677.829 44.945C677.279 44.9817 676.509 45 675.519 45ZM694.148 35.925C694.074 35.9617 694.001 35.8333 693.928 35.54C693.891 35.2467 693.873 34.9533 693.873 34.66C693.873 33.9633 693.928 33.615 694.038 33.615L708.393 31.03C708.466 30.9933 708.521 31.1033 708.558 31.36C708.631 31.58 708.668 31.8367 708.668 32.13C708.668 32.8633 708.576 33.2667 708.393 33.34L694.148 35.925ZM748.941 44.34C749.051 44.34 749.106 44.45 749.106 44.67C749.106 44.89 749.051 45 748.941 45C747.768 45 746.851 44.9817 746.191 44.945L742.451 44.89L738.546 44.945C737.886 44.9817 736.988 45 735.851 45C735.741 45 735.686 44.89 735.686 44.67C735.686 44.45 735.741 44.34 735.851 44.34C737.244 44.34 738.271 44.2483 738.931 44.065C739.591 43.8817 740.031 43.5333 740.251 43.02C740.471 42.47 740.581 41.645 740.581 40.545V15.3C740.581 14.0533 740.508 13.2283 740.361 12.825C740.251 12.4217 739.939 12.165 739.426 12.055C738.913 11.945 737.868 11.89 736.291 11.89H725.016C723.366 11.89 722.266 11.945 721.716 12.055C721.166 12.165 720.818 12.44 720.671 12.88C720.524 13.2833 720.451 14.09 720.451 15.3V40.545C720.451 41.645 720.561 42.47 720.781 43.02C721.038 43.5333 721.478 43.8817 722.101 44.065C722.761 44.2483 723.806 44.34 725.236 44.34C725.309 44.34 725.346 44.45 725.346 44.67C725.346 44.89 725.309 45 725.236 45C724.099 45 723.201 44.9817 722.541 44.945L718.581 44.89L714.841 44.945C714.181 44.9817 713.264 45 712.091 45C712.018 45 711.981 44.89 711.981 44.67C711.981 44.45 712.018 44.34 712.091 44.34C713.484 44.34 714.511 44.2483 715.171 44.065C715.868 43.8817 716.326 43.5333 716.546 43.02C716.803 42.47 716.931 41.645 716.931 40.545V15.74C716.931 14.6033 716.803 13.7233 716.546 13.1C716.326 12.4767 715.868 12.0183 715.171 11.725C714.474 11.4317 713.466 11.285 712.146 11.285C712.073 11.285 712.036 11.175 712.036 10.955C712.036 10.735 712.073 10.625 712.146 10.625C713.393 10.625 714.584 10.6433 715.721 10.68C720.488 10.7533 725.493 10.79 730.736 10.79C735.503 10.79 740.966 10.735 747.126 10.625H748.941C749.051 10.625 749.106 10.735 749.106 10.955C749.106 11.175 749.051 11.285 748.941 11.285C747.034 11.285 745.751 11.615 745.091 12.275C744.468 12.935 744.156 14.09 744.156 15.74V40.545C744.156 41.645 744.266 42.47 744.486 43.02C744.743 43.5333 745.201 43.8817 745.861 44.065C746.521 44.2483 747.548 44.34 748.941 44.34ZM770.678 41.92C770.788 41.92 770.879 41.9933 770.953 42.14C771.063 42.25 771.081 42.36 771.008 42.47C768.588 44.5967 765.911 45.66 762.978 45.66C760.851 45.66 759.036 45.165 757.533 44.175C756.029 43.185 754.874 41.8833 754.068 40.27C753.298 38.6567 752.913 36.9333 752.913 35.1C752.913 32.9367 753.426 30.9567 754.453 29.16C755.479 27.3267 756.873 25.8967 758.633 24.87C760.429 23.8067 762.391 23.275 764.518 23.275C766.571 23.275 768.148 23.825 769.248 24.925C770.348 26.025 770.898 27.565 770.898 29.545C770.898 30.0583 770.843 30.425 770.733 30.645C770.659 30.865 770.513 30.975 770.293 30.975L756.653 31.03C756.579 31.8367 756.543 32.4967 756.543 33.01C756.543 36.2 757.294 38.785 758.798 40.765C760.301 42.745 762.409 43.735 765.123 43.735C766.223 43.735 767.158 43.5883 767.928 43.295C768.734 43.0017 769.633 42.5433 770.623 41.92H770.678ZM762.703 24.375C761.126 24.375 759.824 24.9067 758.798 25.97C757.771 26.9967 757.093 28.445 756.763 30.315L767.213 30.095C767.213 28.225 766.809 26.8133 766.003 25.86C765.196 24.87 764.096 24.375 762.703 24.375ZM780.094 45C780.02 45 779.984 44.89 779.984 44.67C779.984 44.45 780.02 44.34 780.094 44.34C781.12 44.34 781.872 44.2483 782.349 44.065C782.862 43.8817 783.192 43.5333 783.339 43.02C783.522 42.47 783.614 41.645 783.614 40.545V28.335C783.614 26.8317 783.449 25.8417 783.119 25.365C782.789 24.8517 782.074 24.595 780.974 24.595C779.324 24.595 778.114 25.09 777.344 26.08C776.574 27.07 776.152 28.6833 776.079 30.92C776.079 30.9933 775.969 31.03 775.749 31.03C775.565 31.03 775.474 30.9933 775.474 30.92L775.364 27.62C775.327 27.2167 775.29 26.74 775.254 26.19C775.217 25.6033 775.199 24.9433 775.199 24.21C775.199 23.99 775.217 23.8617 775.254 23.825C775.29 23.7517 775.419 23.715 775.639 23.715C776.409 23.715 777.087 23.7333 777.674 23.77L785.044 23.825L792.579 23.77C793.202 23.7333 793.899 23.715 794.669 23.715C794.925 23.715 795.072 23.7517 795.109 23.825C795.145 23.8617 795.164 23.99 795.164 24.21C794.98 27.8767 794.889 30.1133 794.889 30.92C794.889 30.9933 794.779 31.03 794.559 31.03C794.375 31.03 794.265 30.9933 794.229 30.92C794.155 28.6833 793.734 27.07 792.964 26.08C792.194 25.09 791.002 24.595 789.389 24.595C788.289 24.595 787.574 24.8517 787.244 25.365C786.914 25.8417 786.749 26.8317 786.749 28.335V40.545C786.749 41.645 786.822 42.47 786.969 43.02C787.152 43.5333 787.482 43.8817 787.959 44.065C788.435 44.2483 789.187 44.34 790.214 44.34C790.324 44.34 790.379 44.45 790.379 44.67C790.379 44.89 790.324 45 790.214 45C789.297 45 788.582 44.9817 788.069 44.945L785.209 44.89L782.404 44.945C781.854 44.9817 781.084 45 780.094 45ZM816.708 41.92C816.818 41.92 816.91 41.9933 816.983 42.14C817.093 42.25 817.111 42.36 817.038 42.47C814.618 44.5967 811.941 45.66 809.008 45.66C806.881 45.66 805.066 45.165 803.563 44.175C802.06 43.185 800.905 41.8833 800.098 40.27C799.328 38.6567 798.943 36.9333 798.943 35.1C798.943 32.9367 799.456 30.9567 800.483 29.16C801.51 27.3267 802.903 25.8967 804.663 24.87C806.46 23.8067 808.421 23.275 810.548 23.275C812.601 23.275 814.178 23.825 815.278 24.925C816.378 26.025 816.928 27.565 816.928 29.545C816.928 30.0583 816.873 30.425 816.763 30.645C816.69 30.865 816.543 30.975 816.323 30.975L802.683 31.03C802.61 31.8367 802.573 32.4967 802.573 33.01C802.573 36.2 803.325 38.785 804.828 40.765C806.331 42.745 808.44 43.735 811.153 43.735C812.253 43.735 813.188 43.5883 813.958 43.295C814.765 43.0017 815.663 42.5433 816.653 41.92H816.708ZM808.733 24.375C807.156 24.375 805.855 24.9067 804.828 25.97C803.801 26.9967 803.123 28.445 802.793 30.315L813.243 30.095C813.243 28.225 812.84 26.8133 812.033 25.86C811.226 24.87 810.126 24.375 808.733 24.375ZM836.684 23.055C838.187 23.055 839.581 23.4583 840.864 24.265C842.147 25.0717 843.174 26.245 843.944 27.785C844.714 29.325 845.099 31.1217 845.099 33.175C845.099 35.925 844.476 38.2533 843.229 40.16C841.982 42.03 840.442 43.4233 838.609 44.34C836.812 45.2567 835.034 45.715 833.274 45.715C832.101 45.715 831.074 45.605 830.194 45.385C829.314 45.2017 828.397 44.835 827.444 44.285V55.67C827.444 56.77 827.572 57.5767 827.829 58.09C828.122 58.6033 828.654 58.9517 829.424 59.135C830.194 59.355 831.367 59.465 832.944 59.465C833.054 59.465 833.109 59.575 833.109 59.795C833.109 60.015 833.054 60.125 832.944 60.125C831.661 60.125 830.652 60.1067 829.919 60.07L825.904 60.015L822.659 60.07C822.109 60.1067 821.339 60.125 820.349 60.125C820.239 60.125 820.184 60.015 820.184 59.795C820.184 59.575 820.239 59.465 820.349 59.465C821.522 59.465 822.384 59.355 822.934 59.135C823.484 58.9517 823.851 58.6033 824.034 58.09C824.254 57.5767 824.364 56.77 824.364 55.67V28.225C824.364 27.1617 824.217 26.3733 823.924 25.86C823.667 25.31 823.209 24.9433 822.549 24.76C821.926 24.54 820.991 24.43 819.744 24.43C819.634 24.43 819.579 24.32 819.579 24.1C819.579 23.88 819.634 23.77 819.744 23.77H826.399C826.839 23.77 827.114 23.8617 827.224 24.045C827.371 24.2283 827.444 24.6133 827.444 25.2V27.785C829.021 26.1717 830.561 24.98 832.064 24.21C833.567 23.44 835.107 23.055 836.684 23.055ZM834.924 44.56C836.867 44.56 838.462 43.6983 839.709 41.975C840.956 40.2517 841.579 37.8867 841.579 34.88C841.579 31.8 840.901 29.4167 839.544 27.73C838.187 26.0067 836.446 25.145 834.319 25.145C833.036 25.145 831.844 25.4567 830.744 26.08C829.644 26.7033 828.544 27.6017 827.444 28.775V41.04C828.434 42.1767 829.497 43.0567 830.634 43.68C831.807 44.2667 833.237 44.56 834.924 44.56ZM865.388 23.77C865.608 23.77 865.736 23.8067 865.773 23.88C865.809 23.9167 865.828 24.045 865.828 24.265C865.828 24.9983 865.809 25.6583 865.773 26.245C865.736 26.795 865.699 27.2717 865.663 27.675L865.553 30.92C865.553 30.9933 865.443 31.03 865.223 31.03C865.039 31.03 864.929 30.9933 864.893 30.92C864.746 28.5733 864.251 26.9233 863.408 25.97C862.564 25.0167 861.226 24.54 859.393 24.54C858.293 24.54 857.468 24.65 856.918 24.87C856.404 25.09 856.038 25.475 855.818 26.025C855.634 26.5383 855.543 27.3083 855.543 28.335V40.545C855.543 41.645 855.616 42.47 855.763 43.02C855.946 43.5333 856.276 43.8817 856.753 44.065C857.266 44.2483 858.036 44.34 859.063 44.34C859.136 44.34 859.173 44.45 859.173 44.67C859.173 44.89 859.136 45 859.063 45C858.109 45 857.358 44.9817 856.808 44.945L854.058 44.89L851.143 44.945C850.629 44.9817 849.896 45 848.943 45C848.833 45 848.778 44.89 848.778 44.67C848.778 44.45 848.833 44.34 848.943 44.34C849.969 44.34 850.721 44.2483 851.198 44.065C851.711 43.8817 852.041 43.5333 852.188 43.02C852.371 42.47 852.463 41.645 852.463 40.545V28.225C852.463 27.125 852.371 26.3183 852.188 25.805C852.041 25.255 851.729 24.8883 851.253 24.705C850.776 24.5217 850.024 24.43 848.998 24.43C848.888 24.43 848.833 24.32 848.833 24.1C848.833 23.88 848.888 23.77 848.998 23.77H865.388ZM891.351 23.77C891.461 23.77 891.516 23.88 891.516 24.1C891.516 24.32 891.461 24.43 891.351 24.43C890.435 24.43 889.646 24.76 888.986 25.42C888.326 26.0433 887.703 27.125 887.116 28.665L878.206 51.6C877.253 54.02 876.538 56.2933 876.061 58.42C875.878 59.19 875.731 59.6667 875.621 59.85C875.511 60.0333 875.236 60.125 874.796 60.125H867.646C867.573 60.125 867.536 60.015 867.536 59.795C867.536 59.575 867.573 59.465 867.646 59.465C869.773 59.3917 871.588 58.7867 873.091 57.65C874.631 56.5133 876.043 54.3867 877.326 51.27L879.801 45.33L871.441 28.335C870.598 26.7217 869.956 25.6767 869.516 25.2C869.076 24.6867 868.508 24.43 867.811 24.43C867.738 24.43 867.701 24.32 867.701 24.1C867.701 23.88 867.738 23.77 867.811 23.77L869.681 23.825C870.121 23.8617 870.726 23.88 871.496 23.88L875.016 23.825C875.53 23.7883 876.245 23.77 877.161 23.77C877.235 23.77 877.271 23.88 877.271 24.1C877.271 24.32 877.235 24.43 877.161 24.43C875.035 24.43 873.971 24.8517 873.971 25.695C873.971 25.915 874.063 26.2083 874.246 26.575L881.451 41.315L885.906 28.83C886.2 27.95 886.346 27.2533 886.346 26.74C886.346 25.8967 886.016 25.31 885.356 24.98C884.696 24.6133 883.615 24.43 882.111 24.43C882.038 24.43 882.001 24.32 882.001 24.1C882.001 23.88 882.038 23.77 882.111 23.77C883.101 23.77 883.853 23.7883 884.366 23.825L887.666 23.88L889.646 23.825C890.013 23.7883 890.581 23.77 891.351 23.77ZM908.818 23.055C910.321 23.055 911.715 23.4583 912.998 24.265C914.281 25.0717 915.308 26.245 916.078 27.785C916.848 29.325 917.233 31.1217 917.233 33.175C917.233 35.925 916.61 38.2533 915.363 40.16C914.116 42.03 912.576 43.4233 910.743 44.34C908.946 45.2567 907.168 45.715 905.408 45.715C904.235 45.715 903.208 45.605 902.328 45.385C901.448 45.2017 900.531 44.835 899.578 44.285V55.67C899.578 56.77 899.706 57.5767 899.963 58.09C900.256 58.6033 900.788 58.9517 901.558 59.135C902.328 59.355 903.501 59.465 905.078 59.465C905.188 59.465 905.243 59.575 905.243 59.795C905.243 60.015 905.188 60.125 905.078 60.125C903.795 60.125 902.786 60.1067 902.053 60.07L898.038 60.015L894.793 60.07C894.243 60.1067 893.473 60.125 892.483 60.125C892.373 60.125 892.318 60.015 892.318 59.795C892.318 59.575 892.373 59.465 892.483 59.465C893.656 59.465 894.518 59.355 895.068 59.135C895.618 58.9517 895.985 58.6033 896.168 58.09C896.388 57.5767 896.498 56.77 896.498 55.67V28.225C896.498 27.1617 896.351 26.3733 896.058 25.86C895.801 25.31 895.343 24.9433 894.683 24.76C894.06 24.54 893.125 24.43 891.878 24.43C891.768 24.43 891.713 24.32 891.713 24.1C891.713 23.88 891.768 23.77 891.878 23.77H898.533C898.973 23.77 899.248 23.8617 899.358 24.045C899.505 24.2283 899.578 24.6133 899.578 25.2V27.785C901.155 26.1717 902.695 24.98 904.198 24.21C905.701 23.44 907.241 23.055 908.818 23.055ZM907.058 44.56C909.001 44.56 910.596 43.6983 911.843 41.975C913.09 40.2517 913.713 37.8867 913.713 34.88C913.713 31.8 913.035 29.4167 911.678 27.73C910.321 26.0067 908.58 25.145 906.453 25.145C905.17 25.145 903.978 25.4567 902.878 26.08C901.778 26.7033 900.678 27.6017 899.578 28.775V41.04C900.568 42.1767 901.631 43.0567 902.768 43.68C903.941 44.2667 905.371 44.56 907.058 44.56ZM937.521 23.77C937.741 23.77 937.87 23.8067 937.906 23.88C937.943 23.9167 937.961 24.045 937.961 24.265C937.961 24.9983 937.943 25.6583 937.906 26.245C937.87 26.795 937.833 27.2717 937.796 27.675L937.686 30.92C937.686 30.9933 937.576 31.03 937.356 31.03C937.173 31.03 937.063 30.9933 937.026 30.92C936.88 28.5733 936.385 26.9233 935.541 25.97C934.698 25.0167 933.36 24.54 931.526 24.54C930.426 24.54 929.601 24.65 929.051 24.87C928.538 25.09 928.171 25.475 927.951 26.025C927.768 26.5383 927.676 27.3083 927.676 28.335V40.545C927.676 41.645 927.75 42.47 927.896 43.02C928.08 43.5333 928.41 43.8817 928.886 44.065C929.4 44.2483 930.17 44.34 931.196 44.34C931.27 44.34 931.306 44.45 931.306 44.67C931.306 44.89 931.27 45 931.196 45C930.243 45 929.491 44.9817 928.941 44.945L926.191 44.89L923.276 44.945C922.763 44.9817 922.03 45 921.076 45C920.966 45 920.911 44.89 920.911 44.67C920.911 44.45 920.966 44.34 921.076 44.34C922.103 44.34 922.855 44.2483 923.331 44.065C923.845 43.8817 924.175 43.5333 924.321 43.02C924.505 42.47 924.596 41.645 924.596 40.545V28.225C924.596 27.125 924.505 26.3183 924.321 25.805C924.175 25.255 923.863 24.8883 923.386 24.705C922.91 24.5217 922.158 24.43 921.131 24.43C921.021 24.43 920.966 24.32 920.966 24.1C920.966 23.88 921.021 23.77 921.131 23.77H937.521ZM959.525 41.92C959.635 41.92 959.727 41.9933 959.8 42.14C959.91 42.25 959.929 42.36 959.855 42.47C957.435 44.5967 954.759 45.66 951.825 45.66C949.699 45.66 947.884 45.165 946.38 44.175C944.877 43.185 943.722 41.8833 942.915 40.27C942.145 38.6567 941.76 36.9333 941.76 35.1C941.76 32.9367 942.274 30.9567 943.3 29.16C944.327 27.3267 945.72 25.8967 947.48 24.87C949.277 23.8067 951.239 23.275 953.365 23.275C955.419 23.275 956.995 23.825 958.095 24.925C959.195 26.025 959.745 27.565 959.745 29.545C959.745 30.0583 959.69 30.425 959.58 30.645C959.507 30.865 959.36 30.975 959.14 30.975L945.5 31.03C945.427 31.8367 945.39 32.4967 945.39 33.01C945.39 36.2 946.142 38.785 947.645 40.765C949.149 42.745 951.257 43.735 953.97 43.735C955.07 43.735 956.005 43.5883 956.775 43.295C957.582 43.0017 958.48 42.5433 959.47 41.92H959.525ZM951.55 24.375C949.974 24.375 948.672 24.9067 947.645 25.97C946.619 26.9967 945.94 28.445 945.61 30.315L956.06 30.095C956.06 28.225 955.657 26.8133 954.85 25.86C954.044 24.87 952.944 24.375 951.55 24.375Z" fill="#2F2F2F"/>
</svg>
