<svg width="13" height="12" viewBox="0 0 13 12" fill="none" xmlns="http://www.w3.org/2000/svg">
<path d="M12.7676 10.3915C12.5028 11.133 11.4518 11.7479 10.6134 11.9275C10.0398 12.0486 9.29067 12.1452 6.7687 11.1085C3.54283 9.78334 1.46543 6.53311 1.30352 6.32223C1.14847 6.11136 0 4.6012 0 3.03935C0 1.4775 0.79995 0.716983 1.1224 0.390463C1.38722 0.122445 1.82493 0 2.2448 0C2.38064 0 2.50276 0.00680257 2.61253 0.0122446C2.93498 0.0258495 3.09689 0.0448968 3.30957 0.549641C3.57439 1.18227 4.21929 2.74412 4.29613 2.90466C4.37434 3.0652 4.45255 3.28288 4.34278 3.49376C4.23987 3.71144 4.14931 3.80803 3.9874 3.99306C3.82549 4.17809 3.67181 4.31958 3.5099 4.51821C3.36171 4.691 3.19431 4.87602 3.38092 5.19574C3.56753 5.50866 4.21243 6.55216 5.16194 7.39022C6.38725 8.47182 7.38067 8.81739 7.73605 8.96432C8.00087 9.07316 8.31646 9.04731 8.50993 8.84324C8.75554 8.58066 9.05878 8.1453 9.36751 7.71674C9.58705 7.40927 9.86422 7.37118 10.1551 7.48002C10.4515 7.58205 12.0198 8.35074 12.3423 8.50991C12.6647 8.67045 12.8774 8.74664 12.9556 8.88133C13.0325 9.01602 13.0325 9.64865 12.7676 10.3915Z" fill="#FAFAFA"/>
</svg>
